<?xml version="1.0" standalone="no"?><!DOCTYPE svg PUBLIC "-//W3C//DTD SVG 1.1//EN"
        "http://www.w3.org/Graphics/SVG/1.1/DTD/svg11.dtd">
<svg class="icon" width="200px" height="200.00px" viewBox="0 0 1024 1024" version="1.1"
     xmlns="http://www.w3.org/2000/svg">
    <path d="M340.0192 629.6576L457.728 512 340.0192 394.3424l54.272-54.272L512 457.6256l117.6576-117.6576 54.272 54.272L566.3744 512l117.6576 117.6576-54.272 54.272L512 566.3744l-117.6576 117.6576-54.272-54.272z"
          fill="#F56C6C"/>
    <path d="M1024 512c0 282.7776-229.2224 512-512 512S0 794.7776 0 512 229.2224 0 512 0s512 229.2224 512 512z m-76.8 0a435.2 435.2 0 1 0-870.4 0 435.2 435.2 0 0 0 870.4 0z"
          fill="#F56C6C"/>
</svg>
