<?xml version="1.0" standalone="no"?><!DOCTYPE svg PUBLIC "-//W3C//DTD SVG 1.1//EN"
        "http://www.w3.org/Graphics/SVG/1.1/DTD/svg11.dtd">
<svg class="icon" width="200px" height="200.00px" viewBox="0 0 1024 1024" version="1.1"
     xmlns="http://www.w3.org/2000/svg">
    <path d="M925.994667 164.010667h-832a32 32 0 0 0-32 32v640c0 17.706667 14.293333 32 32 32h832a32 32 0 0 0 32-32v-640a32 32 0 0 0-32-32zM833.706667 358.4l-297.002667 297.216a8.021333 8.021333 0 0 1-11.306667 0L410.88 541.098667l-172.501333 172.586666a8.021333 8.021333 0 0 1-11.264 0l-36.821334-36.778666a8.021333 8.021333 0 0 1 0-11.306667l214.912-215.04a8.021333 8.021333 0 0 1 11.306667 0l114.474667 114.432 254.506666-254.592a8.021333 8.021333 0 0 1 11.306667 0l36.821333 36.778667c3.2 2.986667 3.2 8.106667 0.085334 11.221333z"
          fill="#606266"/>
</svg>
