<?xml version="1.0" standalone="no"?><!DOCTYPE svg PUBLIC "-//W3C//DTD SVG 1.1//EN"
        "http://www.w3.org/Graphics/SVG/1.1/DTD/svg11.dtd">
<svg class="icon" width="200px" height="200.00px" viewBox="0 0 1024 1024" version="1.1"
     xmlns="http://www.w3.org/2000/svg">
    <path d="M115.925333 307.968a286.506667 286.506667 0 1 0 573.013334 0 286.506667 286.506667 0 0 0-573.013334 0z"
          fill="#CDE6FF"/>
    <path d="M478.592 498.56a253.013333 253.013333 0 1 0 506.112 0 253.013333 253.013333 0 0 0-506.112 0z"
          fill="#45A1FF"/>
    <path d="M39.210667 522.453333a229.205333 229.205333 0 1 0 458.453333 0 229.205333 229.205333 0 0 0-458.453333 0z"
          fill="#45A1FF"/>
    <path d="M266.112 522.453333h463.189333v229.248H266.112v-229.248z m15.701333 377.472c0 37.802667-27.306667 68.437333-60.928 68.437334-33.621333 0-60.928-30.677333-60.928-68.48 0-37.76 60.928-112.725333 60.928-112.725334s60.928 74.965333 60.928 112.725334z m367.104 0c0 37.802667-27.306667 68.437333-60.928 68.437334-33.621333 0-60.928-30.677333-60.928-68.48 0-37.76 60.928-112.725333 60.928-112.725334s60.928 74.965333 60.928 112.725334z"
          fill="#45A1FF"/>
    <path d="M465.365333 899.925333c0 37.802667-27.306667 68.437333-60.928 68.437334-33.664 0-60.928-30.677333-60.928-68.437334 0-37.802667 60.928-112.768 60.928-112.768s60.928 74.965333 60.928 112.768z m367.104 0c0 37.802667-27.306667 68.437333-60.928 68.437334-33.664 0-60.928-30.677333-60.928-68.437334 0-37.802667 60.928-112.768 60.928-112.768s60.928 74.965333 60.928 112.768z"
          fill="#CDE6FF"/>
</svg>
