<?xml version="1.0" standalone="no"?><!DOCTYPE svg PUBLIC "-//W3C//DTD SVG 1.1//EN"
        "http://www.w3.org/Graphics/SVG/1.1/DTD/svg11.dtd">
<svg class="icon" width="200px" height="200.00px" viewBox="0 0 1024 1024" version="1.1"
     xmlns="http://www.w3.org/2000/svg">
    <path d="M966.659082 454.699616c15.78664 0 29.226618 5.631991 40.447933 16.853305 11.221315 11.178648 16.810639 24.703959 16.810638 40.447932 0 15.78664-5.589324 29.269285-16.810638 40.447933a55.039908 55.039908 0 0 1-40.447933 16.853305h-107.178488a349.311418 349.311418 0 0 1-66.346556 154.581076l80.853199 70.05855c10.922648 10.879982 16.383973 24.234626 16.383972 39.9786 0 15.78664-5.461324 29.098618-16.383972 40.021266a52.906578 52.906578 0 0 1-39.9786 17.279972 52.906578 52.906578 0 0 1-39.935934-17.279972l-70.869215-79.999866a338.26077 338.26077 0 0 1-154.453076 65.450557v108.245153c0 15.743974-5.461324 29.098618-16.341306 39.9786a54.357243 54.357243 0 0 1-39.9786 16.383973 55.89324 55.89324 0 0 1-40.447933-16.383973 53.717244 53.717244 0 0 1-16.810638-40.021266v-108.202487a338.26077 338.26077 0 0 1-154.453076-65.450557l-69.973217 79.999866c-11.519981 11.519981-24.959958 17.279971-40.405266 17.279972s-28.927952-5.75999-40.447932-17.279972a54.442576 54.442576 0 0 1-16.341307-40.021266c0-15.78664 5.461324-29.098618 16.341307-40.021267l80.895865-69.973217a361.087398 361.087398 0 0 1-66.346556-154.623742H57.220598c-15.743974 0-29.183951-5.631991-40.405266-16.853305A55.210575 55.210575 0 0 1 0.004693 512.000853c0-15.78664 5.589324-29.269285 16.810639-40.447932 11.221315-11.221315 24.661292-16.853305 40.405266-16.853305h107.221155A361.087398 361.087398 0 0 1 230.830975 300.11854L149.892444 230.102656a54.442576 54.442576 0 0 1-16.341307-40.021266c0-15.78664 5.461324-29.098618 16.341307-40.021267 11.519981-11.519981 25.002625-17.279971 40.447932-17.279971s28.927952 5.75999 40.447933 17.279971l69.973216 80.938532a348.586086 348.586086 0 0 1 154.453076-66.389223V56.321613c0-15.743974 5.546657-29.098618 16.767972-39.9786A55.89324 55.89324 0 0 1 512.430506 0.001707c15.743974 0 29.055952 5.461324 39.9786 16.383972 10.879982 10.879982 16.341306 24.234626 16.341306 39.9786v108.245153a348.628752 348.628752 0 0 1 154.453076 66.389223l70.826549-80.938532a52.906578 52.906578 0 0 1 40.021266-17.279971c15.743974 0 29.013285 5.75999 39.935934 17.279971 10.922648 10.922648 16.383973 24.234626 16.383972 40.021267s-5.461324 29.098618-16.383972 40.021266l-80.853199 69.973217a349.311418 349.311418 0 0 1 66.30389 154.581076h107.221154zM512.430506 795.733714a275.199541 275.199541 0 0 0 109.90915-22.271963 286.378189 286.378189 0 0 0 90.410516-60.927899 288.170186 288.170186 0 0 0 60.885232-90.026516 274.943542 274.943542 0 0 0 22.229296-110.506483c0-38.826602-7.423988-75.519874-22.229296-110.03715a286.719522 286.719522 0 0 0-60.885232-90.453182 286.378189 286.378189 0 0 0-90.410516-60.970565 275.199541 275.199541 0 0 0-109.90915-22.271963A281.044865 281.044865 0 0 0 311.641507 311.467854a290.644849 290.644849 0 0 0-60.415899 90.495849A275.924873 275.924873 0 0 0 228.953645 512.000853c0 39.423934 7.423988 76.245206 22.271963 110.506483 14.805309 34.261276 34.986608 64.255893 60.415899 90.026516a281.044865 281.044865 0 0 0 200.788999 83.199862z"
          fill="#FFC5A5"/>
    <path d="M601.433024 301.014538a220.671632 220.671632 0 0 0-89.045185-18.175969c-32.08528 0-62.079897 6.058657-89.941183 18.175969a233.087612 233.087612 0 0 0-72.661212 49.109252 233.343611 233.343611 0 0 0-49.066585 72.746545 221.268965 221.268965 0 0 0-18.17597 89.173185c0 32.08528 6.058657 62.122563 18.17597 90.026517a233.300944 233.300944 0 0 0 49.066585 72.703878c20.565299 20.650632 44.799925 36.991938 72.661212 49.109252a222.932962 222.932962 0 0 0 89.941183 18.218636c31.530614 0 61.183898-6.058657 89.045185-18.218636a233.087612 233.087612 0 0 0 72.703879-49.066585 233.386278 233.386278 0 0 0 49.066585-72.789212 223.572961 223.572961 0 0 0 18.133303-90.026517c0-31.530614-6.058657-61.226565-18.133303-89.130518a233.386278 233.386278 0 0 0-49.066585-72.746545 233.044945 233.044945 0 0 0-72.703879-49.066585z"
          fill="#FF6F1E"/>
</svg>
