<?xml version="1.0" standalone="no"?><!DOCTYPE svg PUBLIC "-//W3C//DTD SVG 1.1//EN"
        "http://www.w3.org/Graphics/SVG/1.1/DTD/svg11.dtd">
<svg class="icon" width="200px" height="200.00px" viewBox="0 0 1024 1024" version="1.1"
     xmlns="http://www.w3.org/2000/svg">
    <path d="M512 725.333333a42.666667 42.666667 0 0 1-42.666667-42.666666V341.333333a42.666667 42.666667 0 1 1 85.333334 0v341.333334a42.666667 42.666667 0 0 1-42.666667 42.666666zM341.333333 725.333333a42.666667 42.666667 0 0 1-42.666666-42.666666v-213.333334a42.666667 42.666667 0 1 1 85.333333 0v213.333334a42.666667 42.666667 0 0 1-42.666667 42.666666zM682.666667 725.333333a42.666667 42.666667 0 0 1-42.666667-42.666666v-128a42.666667 42.666667 0 1 1 85.333333 0v128a42.666667 42.666667 0 0 1-42.666666 42.666666zM128 213.333333a85.333333 85.333333 0 0 1 85.333333-85.333333h597.333334a85.333333 85.333333 0 0 1 85.333333 85.333333v597.333334a85.333333 85.333333 0 0 1-85.333333 85.333333H213.333333a85.333333 85.333333 0 0 1-85.333333-85.333333V213.333333z m85.333333 597.333334h597.333334V213.333333H213.333333v597.333334z"/>
</svg>
