<?xml version="1.0" standalone="no"?><!DOCTYPE svg PUBLIC "-//W3C//DTD SVG 1.1//EN"
        "http://www.w3.org/Graphics/SVG/1.1/DTD/svg11.dtd">
<svg class="icon" width="200px" height="200.00px" viewBox="0 0 1024 1024" version="1.1"
     xmlns="http://www.w3.org/2000/svg">
    <path d="M115.925333 558.421333a286.506667 286.506667 0 1 0 573.013334 0 286.506667 286.506667 0 0 0-573.013334 0z"
          fill="#CDE6FF"/>
    <path d="M478.592 749.141333a253.098667 253.098667 0 1 0 506.154667 0 253.098667 253.098667 0 0 0-506.154667 0z"
          fill="#45A1FF"/>
    <path d="M39.210667 772.949333a229.205333 229.205333 0 1 0 458.453333 0 229.205333 229.205333 0 0 0-458.453333 0z"
          fill="#45A1FF"/>
    <path d="M266.069333 772.949333h463.232v229.248H266.069333v-229.248z m611.072-312.448H405.674667a37.205333 37.205333 0 0 1-37.12-37.12c0-20.48 16.725333-37.12 37.12-37.12h471.466666c20.48 0 37.12 16.64 37.12 37.12 0 20.437333-16.64 37.12-37.12 37.12z"
          fill="#45A1FF"/>
    <path d="M877.141333 231.808h-342.357333a37.205333 37.205333 0 0 1-37.12-37.12c0-20.394667 16.682667-37.12 37.12-37.12h342.357333c20.48 0 37.12 16.725333 37.12 37.12 0 20.48-16.64 37.12-37.12 37.12z"
          fill="#CDE6FF"/>
    <path d="M881.024 346.154667h-228.778667a37.205333 37.205333 0 0 1-37.12-37.12c0-20.437333 16.682667-37.12 37.12-37.12h228.778667c20.394667 0 37.12 16.682667 37.12 37.12a37.290667 37.290667 0 0 1-37.12 37.12z"
          fill="#45A1FF"/>
</svg>
