<?xml version="1.0" standalone="no"?><!DOCTYPE svg PUBLIC "-//W3C//DTD SVG 1.1//EN"
        "http://www.w3.org/Graphics/SVG/1.1/DTD/svg11.dtd">
<svg class="icon" width="200px" height="200.00px" viewBox="0 0 1024 1024" version="1.1"
     xmlns="http://www.w3.org/2000/svg">
    <path d="M597.376 597.333333a42.666667 42.666667 0 0 1-42.666667 42.666667h-170.666666a42.666667 42.666667 0 1 1 0-85.333333h170.666666a42.666667 42.666667 0 0 1 42.666667 42.666666zM682.709333 426.666667a42.666667 42.666667 0 0 1-42.666666 42.666666h-256a42.666667 42.666667 0 1 1 0-85.333333h256a42.666667 42.666667 0 0 1 42.666666 42.666667zM828.373333 273.664a85.333333 85.333333 0 0 1 25.002667 60.330667V853.333333a85.333333 85.333333 0 0 1-85.333333 85.333334h-512a85.333333 85.333333 0 0 1-85.333334-85.333334V170.666667a85.333333 85.333333 0 0 1 85.333334-85.333334h348.672a85.333333 85.333333 0 0 1 60.330666 25.002667l163.328 163.328z m-60.330666 60.330667L604.714667 170.666667H256v682.666666h512V333.994667z"/>
</svg>
