<?xml version="1.0" standalone="no"?><!DOCTYPE svg PUBLIC "-//W3C//DTD SVG 1.1//EN"
        "http://www.w3.org/Graphics/SVG/1.1/DTD/svg11.dtd">
<svg class="icon" width="200px" height="200.00px" viewBox="0 0 1024 1024" version="1.1"
     xmlns="http://www.w3.org/2000/svg">
    <path d="M899.669333 358.997333a85.333333 85.333333 0 0 0 0-120.704l-114.005333-113.962666a85.333333 85.333333 0 0 0-120.661333 0l-512 512A85.333333 85.333333 0 0 0 128 696.661333V853.333333a42.666667 42.666667 0 0 0 42.666667 42.666667h156.672a85.333333 85.333333 0 0 0 60.330666-25.002667l512-512z m-310.101333-38.570666l114.005333 113.962666L327.338667 810.666667H213.333333v-114.005334l376.234667-376.234666z m174.336 53.632l-113.962667-113.962667L725.333333 184.661333 839.338667 298.666667l-75.434667 75.392z"/>
</svg>
