<?xml version="1.0" standalone="no"?><!DOCTYPE svg PUBLIC "-//W3C//DTD SVG 1.1//EN"
        "http://www.w3.org/Graphics/SVG/1.1/DTD/svg11.dtd">
<svg class="icon" width="200px" height="200.00px" viewBox="0 0 1024 1024" version="1.1"
     xmlns="http://www.w3.org/2000/svg">
    <path d="M140.202667 462.933333l5.717333-2.944C158.592 368.213333 218.453333 307.626667 312.021333 296.789333c34.176-3.882667 65.28 1.28 101.546667 15.402667 43.349333-65.493333 113.749333-100.096 195.328-110.378667a326.4 326.4 0 0 0-272-145.621333 326.826667 326.826667 0 0 0-326.912 326.826667c0 48.298667 10.496 94.08 29.226667 135.253333 32.682667-25.386667 58.709333-47.658667 100.992-55.381333z"
          fill="#CDE6FF"/>
    <path d="M0 733.226667c0 129.706667 104.96 234.666667 234.666667 234.666666h554.752c129.706667 0 234.666667-104.96 234.666666-234.666666a234.922667 234.922667 0 0 0-149.504-218.709334l0.213334-5.290666A245.333333 245.333333 0 0 0 424.533333 374.4a147.797333 147.797333 0 0 0-82.986666-25.173333A149.290667 149.290667 0 0 0 192 498.517333v3.882667a234.752 234.752 0 0 0-192 230.826667z"
          fill="#45A1FF"/>
</svg>
