<?xml version="1.0" standalone="no"?><!DOCTYPE svg PUBLIC "-//W3C//DTD SVG 1.1//EN"
        "http://www.w3.org/Graphics/SVG/1.1/DTD/svg11.dtd">
<svg class="icon" width="200px" height="200.00px" viewBox="0 0 1024 1024" version="1.1"
     xmlns="http://www.w3.org/2000/svg">
    <path d="M128 504.661333a85.333333 85.333333 0 0 1 25.002667-60.330666l298.666666-298.666667a85.333333 85.333333 0 0 1 120.661334 0l298.666666 298.666667A85.333333 85.333333 0 0 1 896 504.661333V853.333333a42.666667 42.666667 0 0 1-42.666667 42.666667h-256a42.666667 42.666667 0 0 1-42.666666-42.666667v-213.333333h-85.333334v213.333333a42.666667 42.666667 0 0 1-42.666666 42.666667H170.666667a42.666667 42.666667 0 0 1-42.666667-42.666667v-348.672z m384-298.666666l-298.666667 298.666666V810.666667h170.666667v-213.333334a42.666667 42.666667 0 0 1 42.666667-42.666666h170.666666a42.666667 42.666667 0 0 1 42.666667 42.666666v213.333334h170.666667v-306.005334l-298.666667-298.666666z"/>
</svg>
