<?xml version="1.0" standalone="no"?><!DOCTYPE svg PUBLIC "-//W3C//DTD SVG 1.1//EN"
        "http://www.w3.org/Graphics/SVG/1.1/DTD/svg11.dtd">
<svg class="icon" width="200px" height="200.00px" viewBox="0 0 1024 1024" version="1.1"
     xmlns="http://www.w3.org/2000/svg">
    <path d="M115.925333 307.968a286.506667 286.506667 0 1 0 573.013334 0 286.506667 286.506667 0 0 0-573.013334 0z"
          fill="#CDE6FF"/>
    <path d="M478.592 498.56a253.013333 253.013333 0 1 0 506.112 0 253.013333 253.013333 0 0 0-506.112 0z"
          fill="#45A1FF"/>
    <path d="M39.210667 522.453333a229.205333 229.205333 0 1 0 458.453333 0 229.205333 229.205333 0 0 0-458.453333 0z"
          fill="#45A1FF"/>
    <path d="M266.069333 522.453333h463.232v229.248H266.069333v-229.248z" fill="#45A1FF"/>
    <path d="M391.722667 767.786667l23.210666-5.717334a3.584 3.584 0 0 0 2.432-1.664 3.456 3.456 0 0 0 0.426667-2.901333 4.010667 4.010667 0 0 0-4.778667-2.602667l-30.805333 7.850667-23.210667-12.416 26.282667-14.08 30.805333 7.637333h0.981334a3.84 3.84 0 0 0 3.84-3.157333 3.541333 3.541333 0 0 0-2.858667-4.010667l-23.210667-5.76 27.264-14.592a3.584 3.584 0 0 0 1.877334-3.626666 3.626667 3.626667 0 0 0-0.426667-1.365334 4.138667 4.138667 0 0 0-5.290667-1.450666l-27.264 14.805333 6.186667-21.504a3.456 3.456 0 0 0-0.426667-2.944 3.584 3.584 0 0 0-2.432-1.621333 4.053333 4.053333 0 0 0-4.736 2.602666l-8.362666 28.672-26.282667 14.08v-28.202666l22.485333-20.778667a3.242667 3.242667 0 0 0 1.28-2.602667 3.242667 3.242667 0 0 0-1.28-2.645333 4.010667 4.010667 0 0 0-5.461333 0l-16.938667 15.786667v-29.141334a4.096 4.096 0 0 0-3.968-3.072 4.096 4.096 0 0 0-3.925333 3.072v29.141334l-16.938667-15.786667a4.010667 4.010667 0 0 0-5.504 0 3.242667 3.242667 0 0 0-1.28 2.645333c0 1.024 0.469333 1.962667 1.28 2.56l22.485334 20.821334v27.946666l-26.282667-14.08-8.106667-28.202666a4.010667 4.010667 0 0 0-4.778666-2.602667 3.584 3.584 0 0 0-2.474667 1.621333 3.456 3.456 0 0 0-0.426667 2.944l6.229334 21.504-27.221334-14.805333a4.138667 4.138667 0 0 0-5.290666 1.408 3.626667 3.626667 0 0 0 1.450666 5.034667l27.221334 14.592-23.381334 5.461333a3.584 3.584 0 0 0-2.474666 1.664 3.456 3.456 0 0 0-0.426667 2.901333 4.010667 4.010667 0 0 0 4.778667 2.602667l30.805333-7.594667 26.282667 14.08-23.210667 12.416-30.549333-7.637333a4.053333 4.053333 0 0 0-4.778667 2.645333 3.712 3.712 0 0 0 0.341333 2.858667c0.512 0.853333 1.28 1.493333 2.304 1.706667l23.168 5.717333-30.336 16a3.498667 3.498667 0 0 0-1.92 4.053333c0.512 1.664 2.133333 2.730667 3.84 2.602667l1.92-0.426667 30.336-16.213333-6.186666 21.461333a3.456 3.456 0 0 0 0.426666 2.944c0.554667 0.853333 1.408 1.450667 2.432 1.621334a4.053333 4.053333 0 0 0 4.778667-2.602667l8.32-28.416 23.210667-12.458667v24.832l-22.485334 20.778667a3.242667 3.242667 0 0 0-1.28 2.645333c0 1.024 0.469333 1.962667 1.28 2.56a4.010667 4.010667 0 0 0 5.504 0l16.938667-15.744v32.256c0.426667 1.792 2.090667 3.072 3.925333 3.072s3.498667-1.28 3.968-3.072v-32.256l16.938667 15.786667a4.010667 4.010667 0 0 0 5.461333 0 3.242667 3.242667 0 0 0 1.28-2.602667 3.242667 3.242667 0 0 0-1.28-2.645333l-22.485333-20.778667v-24.832l23.210667 12.458667 8.362666 28.416a4.010667 4.010667 0 0 0 4.736 2.602667 3.584 3.584 0 0 0 2.474667-1.621334 3.456 3.456 0 0 0 0.426667-2.944l-6.229334-21.504 30.378667 16.213334a4.138667 4.138667 0 0 0 5.546667-1.194667 3.328 3.328 0 0 0-0.298667-4.138667 3.584 3.584 0 0 0-1.152-0.853333l-30.677333-16.213333z m293.12 0l23.210666-5.717334a3.584 3.584 0 0 0 2.432-1.664 3.456 3.456 0 0 0 0.426667-2.901333 4.010667 4.010667 0 0 0-4.778667-2.602667l-30.805333 7.850667-23.210667-12.416 26.282667-14.08 30.805333 7.637333h0.981334a3.84 3.84 0 0 0 3.84-3.157333 3.541333 3.541333 0 0 0-2.858667-4.010667l-23.210667-5.76 27.264-14.592a3.584 3.584 0 0 0 1.749334-2.176 3.669333 3.669333 0 0 0-0.341334-2.816 4.138667 4.138667 0 0 0-5.248-1.450666l-27.264 14.805333 6.186667-21.504a3.456 3.456 0 0 0-0.426667-2.944 3.541333 3.541333 0 0 0-2.432-1.621333 4.053333 4.053333 0 0 0-4.736 2.602666l-8.362666 28.672-26.282667 14.08v-28.202666l22.485333-20.778667a3.242667 3.242667 0 0 0 1.28-2.602667 3.242667 3.242667 0 0 0-1.28-2.645333 4.010667 4.010667 0 0 0-5.461333 0l-16.938667 15.786667v-29.141334a4.096 4.096 0 0 0-3.968-3.072 4.096 4.096 0 0 0-3.925333 3.072v29.141334l-16.938667-15.786667a4.010667 4.010667 0 0 0-5.504 0 3.242667 3.242667 0 0 0-1.28 2.645333c0 1.024 0.469333 1.962667 1.28 2.56l22.485334 20.821334v27.946666l-26.282667-14.08-8.106667-28.202666a4.010667 4.010667 0 0 0-4.778666-2.602667 3.584 3.584 0 0 0-2.474667 1.621333 3.456 3.456 0 0 0-0.426667 2.944l6.229334 21.504-27.221334-14.805333a4.138667 4.138667 0 0 0-5.290666 1.408 3.584 3.584 0 0 0-0.341334 2.816 3.584 3.584 0 0 0 1.792 2.218667l27.221334 14.592-23.381334 5.461333a3.584 3.584 0 0 0-2.474666 1.664 3.456 3.456 0 0 0-0.426667 2.901333 4.010667 4.010667 0 0 0 4.778667 2.602667l30.805333-7.594667 26.282667 14.08-23.210667 12.416-30.549333-7.637333a4.053333 4.053333 0 0 0-4.778667 2.645333 3.712 3.712 0 0 0 0.341333 2.858667c0.512 0.853333 1.28 1.493333 2.304 1.706667l23.168 5.717333-30.336 16a3.498667 3.498667 0 0 0-1.92 4.053333c0.512 1.664 2.133333 2.730667 3.84 2.602667l1.92-0.426667 30.336-16.213333-6.186666 21.461333a3.456 3.456 0 0 0 0.426666 2.944c0.554667 0.853333 1.408 1.450667 2.432 1.621334a4.053333 4.053333 0 0 0 4.778667-2.602667l8.32-28.416 23.210667-12.458667v24.832l-22.485334 20.778667a3.242667 3.242667 0 0 0-1.28 2.645333c0 1.024 0.469333 1.962667 1.28 2.56a4.010667 4.010667 0 0 0 5.504 0l16.938667-15.744v32.256c0.426667 1.792 2.090667 3.072 3.925333 3.072s3.498667-1.28 3.968-3.072v-32.256l16.938667 15.786667a4.010667 4.010667 0 0 0 5.461333 0 3.242667 3.242667 0 0 0 1.28-2.602667 3.242667 3.242667 0 0 0-1.28-2.645333l-22.485333-20.778667v-24.832l23.210667 12.458667 8.362666 28.416a4.010667 4.010667 0 0 0 4.736 2.602667 3.584 3.584 0 0 0 2.474667-1.621334 3.456 3.456 0 0 0 0.426667-2.944l-6.229334-21.504 30.378667 16.213334a4.138667 4.138667 0 0 0 5.546667-1.194667 3.328 3.328 0 0 0-0.298667-4.138667 3.584 3.584 0 0 0-1.152-0.853333l-30.677333-16.213333z"
          fill="#CDE6FF"/>
    <path d="M245.12 895.829333l23.210667-5.717333a3.584 3.584 0 0 0 2.474666-1.664 3.456 3.456 0 0 0 0.426667-2.901333 4.010667 4.010667 0 0 0-4.778667-2.602667l-30.848 7.850667-23.168-12.416 26.24-14.08 30.848 7.637333h0.938667a3.84 3.84 0 0 0 3.84-3.157333 3.584 3.584 0 0 0-2.858667-4.010667l-23.168-5.76 27.221334-14.592a3.626667 3.626667 0 0 0 1.450666-4.992 4.096 4.096 0 0 0-5.290666-1.450667l-27.221334 14.805334 6.186667-21.504a3.456 3.456 0 0 0-0.426667-2.944 3.584 3.584 0 0 0-2.432-1.621334 4.053333 4.053333 0 0 0-4.778666 2.602667l-8.362667 28.672-26.24 14.08v-28.202667l22.485333-20.778666a3.242667 3.242667 0 0 0 1.28-2.602667 3.242667 3.242667 0 0 0-1.28-2.645333 4.010667 4.010667 0 0 0-5.504 0l-16.938666 15.786666v-29.141333a4.096 4.096 0 0 0-3.925334-3.072 4.096 4.096 0 0 0-3.968 3.072v29.141333l-16.938666-15.786666a4.010667 4.010667 0 0 0-5.461334 0 3.242667 3.242667 0 0 0-1.28 2.645333c0 1.024 0.426667 1.962667 1.28 2.56l22.442667 20.821333v27.946667l-26.24-14.08-8.149333-28.202667a4.010667 4.010667 0 0 0-4.778667-2.602666 3.584 3.584 0 0 0-2.432 1.621333 3.456 3.456 0 0 0-0.426667 2.944l6.186667 21.504-27.221333-14.805333a4.138667 4.138667 0 0 0-5.290667 1.408 3.626667 3.626667 0 0 0 1.450667 5.034666l27.221333 14.592-23.381333 5.461334a3.584 3.584 0 0 0-2.474667 1.664 3.456 3.456 0 0 0-0.426667 2.901333 4.010667 4.010667 0 0 0 4.778667 2.602667l30.848-7.594667 26.24 14.08-23.168 12.416-30.592-7.637333a4.053333 4.053333 0 0 0-4.736 2.645333 3.712 3.712 0 0 0 0.298667 2.858667c0.512 0.853333 1.322667 1.493333 2.304 1.706666l23.210666 5.717334-30.378666 16a3.498667 3.498667 0 0 0-1.877334 4.053333c0.512 1.664 2.090667 2.730667 3.84 2.602667l1.877334-0.426667 30.378666-16.213333-6.229333 21.461333a3.456 3.456 0 0 0 0.426667 2.944c0.554667 0.853333 1.450667 1.450667 2.474666 1.621333a4.053333 4.053333 0 0 0 4.736-2.602666l8.362667-28.416 23.168-12.458667v24.832l-22.442667 20.778667a3.242667 3.242667 0 0 0-1.28 2.645333c0 1.024 0.426667 1.962667 1.28 2.56a4.010667 4.010667 0 0 0 5.461334 0l16.938666-15.744v32.256c0.469333 1.792 2.133333 3.072 3.968 3.072s3.456-1.28 3.925334-3.072v-32.256l16.938666 15.786667a4.010667 4.010667 0 0 0 5.504 0 3.242667 3.242667 0 0 0 1.28-2.602667 3.242667 3.242667 0 0 0-1.28-2.645333l-22.485333-20.778667v-24.832l23.168 12.458667 8.362667 28.416a4.010667 4.010667 0 0 0 4.778666 2.602666 3.584 3.584 0 0 0 2.432-1.621333 3.456 3.456 0 0 0 0.426667-2.944l-6.186667-21.504 30.336 16.213333a4.138667 4.138667 0 0 0 5.546667-1.194666 3.328 3.328 0 0 0-0.256-4.138667 3.584 3.584 0 0 0-1.194667-0.853333l-30.677333-16.213334zM538.282667 895.829333l23.168-5.717333a3.584 3.584 0 0 0 2.474666-1.664 3.456 3.456 0 0 0 0.426667-2.901333 4.010667 4.010667 0 0 0-4.778667-2.602667l-30.848 7.850667-23.168-12.416 26.24-14.08 30.848 7.637333h0.981334a3.84 3.84 0 0 0 3.84-3.157333 3.584 3.584 0 0 0-2.901334-4.010667l-23.168-5.76 27.221334-14.592a3.626667 3.626667 0 0 0 1.450666-4.992 4.138667 4.138667 0 0 0-5.290666-1.450667l-27.221334 14.805334 6.186667-21.504a3.456 3.456 0 0 0-0.426667-2.944 3.626667 3.626667 0 0 0-2.432-1.621334 4.053333 4.053333 0 0 0-4.778666 2.602667l-8.32 28.672-26.282667 14.08v-28.202667l22.485333-20.778666a3.242667 3.242667 0 0 0 1.28-2.602667 3.242667 3.242667 0 0 0-1.28-2.645333 4.010667 4.010667 0 0 0-5.504 0l-16.938666 15.786666v-29.141333a4.138667 4.138667 0 0 0-3.925334-3.072 4.096 4.096 0 0 0-3.968 3.072v29.141333l-16.938666-15.786666a4.010667 4.010667 0 0 0-5.461334 0 3.242667 3.242667 0 0 0-1.28 2.645333c0 1.024 0.426667 1.962667 1.28 2.56l22.485334 20.821333v27.946667l-26.282667-14.08-8.106667-28.202667a4.010667 4.010667 0 0 0-4.778666-2.602666 3.584 3.584 0 0 0-2.474667 1.621333 3.456 3.456 0 0 0-0.426667 2.944l6.229334 21.504-27.264-14.805333a4.138667 4.138667 0 0 0-5.248 1.408 3.626667 3.626667 0 0 0 1.408 5.034666l27.264 14.592-23.424 5.461334a3.584 3.584 0 0 0-2.432 1.664 3.456 3.456 0 0 0-0.426667 2.901333 4.010667 4.010667 0 0 0 4.778667 2.602667l30.805333-7.594667 26.282667 14.08-23.210667 12.416-30.549333-7.637333a4.053333 4.053333 0 0 0-4.778667 2.645333 3.712 3.712 0 0 0 0.298667 2.858667c0.512 0.853333 1.322667 1.493333 2.304 1.706666l23.210666 5.717334-30.378666 16a3.498667 3.498667 0 0 0-1.877334 4.053333c0.512 1.664 2.090667 2.730667 3.84 2.602667l1.877334-0.426667 30.378666-16.213333-6.186666 21.461333a3.456 3.456 0 0 0 0.426666 2.944c0.512 0.853333 1.408 1.450667 2.432 1.621333a4.053333 4.053333 0 0 0 4.736-2.602666l8.362667-28.416 23.210667-12.458667v24.832l-22.485334 20.778667a3.242667 3.242667 0 0 0-1.28 2.645333c0 1.024 0.426667 1.962667 1.28 2.56a4.010667 4.010667 0 0 0 5.461334 0l16.938666-15.744v32.256c0.469333 1.792 2.133333 3.072 3.968 3.072s3.456-1.28 3.925334-3.072v-32.256l16.938666 15.786667a4.010667 4.010667 0 0 0 5.504 0 3.242667 3.242667 0 0 0 1.28-2.602667 3.242667 3.242667 0 0 0-1.28-2.645333l-22.485333-20.778667v-24.832l23.210667 12.458667 8.32 28.416a4.010667 4.010667 0 0 0 4.778666 2.602666 3.584 3.584 0 0 0 2.432-1.621333 3.456 3.456 0 0 0 0.426667-2.944l-6.186667-21.504 30.336 16.213333a4.138667 4.138667 0 0 0 5.546667-1.194666 3.328 3.328 0 0 0-0.256-4.138667 3.584 3.584 0 0 0-1.194667-0.853333l-30.634666-16.213334zM831.402667 895.829333l23.168-5.717333a3.584 3.584 0 0 0 2.474666-1.664 3.456 3.456 0 0 0 0.426667-2.901333 4.010667 4.010667 0 0 0-4.778667-2.602667l-30.848 7.850667-23.168-12.416 26.24-14.08 30.848 7.637333h0.981334a3.84 3.84 0 0 0 3.84-3.157333 3.584 3.584 0 0 0-2.901334-4.010667l-23.168-5.76 27.221334-14.592a3.626667 3.626667 0 0 0 1.450666-4.992 4.096 4.096 0 0 0-5.290666-1.450667l-27.221334 14.805334 6.186667-21.504a3.456 3.456 0 0 0-0.426667-2.944 3.541333 3.541333 0 0 0-2.432-1.621334 4.053333 4.053333 0 0 0-4.778666 2.602667l-8.32 28.672-26.282667 14.08v-28.202667l22.485333-20.778666a3.242667 3.242667 0 0 0 1.28-2.602667 3.242667 3.242667 0 0 0-1.28-2.645333 4.010667 4.010667 0 0 0-5.461333 0l-16.981333 15.786666v-29.141333a4.096 4.096 0 0 0-3.925334-3.072 4.096 4.096 0 0 0-3.968 3.072v29.141333l-16.938666-15.786666a4.010667 4.010667 0 0 0-5.461334 0 3.242667 3.242667 0 0 0-1.28 2.645333c0 1.024 0.426667 1.962667 1.28 2.56l22.485334 20.821333v27.946667l-26.282667-14.08-8.106667-28.202667a4.010667 4.010667 0 0 0-4.778666-2.602666 3.584 3.584 0 0 0-2.474667 1.621333 3.456 3.456 0 0 0-0.426667 2.944l6.229334 21.504-27.264-14.805333a4.138667 4.138667 0 0 0-5.248 1.408 3.584 3.584 0 0 0 0.298666 4.096 3.584 3.584 0 0 0 1.109334 0.938666l27.264 14.592-23.424 5.461334a3.584 3.584 0 0 0-2.432 1.664 3.456 3.456 0 0 0-0.426667 2.901333 4.010667 4.010667 0 0 0 4.778667 2.602667l30.805333-7.594667 26.282667 14.08-23.210667 12.416-30.549333-7.637333a4.053333 4.053333 0 0 0-4.778667 2.645333 3.712 3.712 0 0 0 0.298667 2.858667c0.512 0.853333 1.322667 1.493333 2.304 1.706666l23.210666 5.717334-30.378666 16a3.498667 3.498667 0 0 0-1.877334 4.053333c0.512 1.664 2.133333 2.730667 3.84 2.602667l1.877334-0.426667 30.378666-16.213333-6.186666 21.461333a3.456 3.456 0 0 0 0.426666 2.944c0.554667 0.853333 1.408 1.450667 2.432 1.621333a4.053333 4.053333 0 0 0 4.736-2.602666l8.362667-28.416 23.210667-12.458667v24.832l-22.485334 20.778667a3.242667 3.242667 0 0 0-1.28 2.645333c0 1.024 0.426667 1.962667 1.28 2.56a4.010667 4.010667 0 0 0 5.461334 0l16.981333-15.744v32.256c0.426667 1.792 2.090667 3.072 3.925333 3.072s3.456-1.28 3.925334-3.072v-32.256l16.981333 15.786667a4.010667 4.010667 0 0 0 5.461333 0 3.242667 3.242667 0 0 0 1.28-2.602667 3.242667 3.242667 0 0 0-1.28-2.645333l-22.485333-20.778667v-24.832l23.210667 12.458667 8.32 28.416a4.010667 4.010667 0 0 0 4.778666 2.602666 3.584 3.584 0 0 0 2.432-1.621333 3.456 3.456 0 0 0 0.426667-2.944l-6.186667-21.504 30.378667 16.213333a4.138667 4.138667 0 0 0 5.546667-1.194666 3.328 3.328 0 0 0-0.298667-4.138667 3.584 3.584 0 0 0-1.152-0.853333l-30.72-16.213334z"
          fill="#45A1FF"/>
</svg>
