<?xml version="1.0" standalone="no"?><!DOCTYPE svg PUBLIC "-//W3C//DTD SVG 1.1//EN"
        "http://www.w3.org/Graphics/SVG/1.1/DTD/svg11.dtd">
<svg class="icon" width="200px" height="200.00px" viewBox="0 0 1024 1024" version="1.1"
     xmlns="http://www.w3.org/2000/svg">
    <path d="M628.949333 643.072c15.786667 0 30.506667 3.242667 44.16 9.728 13.653333 6.485333 25.6 15.530667 35.968 27.136 10.282667 11.605333 18.346667 25.088 24.106667 40.448 5.76 15.36 8.661333 31.914667 8.661333 49.664 0 17.749333-2.901333 34.304-8.661333 49.664a121.770667 121.770667 0 0 1-60.074667 67.072c-13.653333 6.826667-28.373333 10.24-44.16 10.24-15.786667 0-30.464-3.413333-44.117333-10.24a117.034667 117.034667 0 0 1-35.498667-27.136 133.077333 133.077333 0 0 1-24.149333-39.936 133.973333 133.973333 0 0 1-9.088-49.664v-1.024H0v-128h627.157333v2.048h1.792z m253.056-388.096c19.413333 0 37.76 4.266667 55.04 12.8 17.322667 8.533333 32.341333 20.138667 45.098667 34.816A173.354667 173.354667 0 0 1 1024 415.744c0 22.528-3.797333 43.52-11.392 62.976a166.442667 166.442667 0 0 1-30.464 50.688 146.346667 146.346667 0 0 1-45.056 34.304c-17.322667 8.533333-35.669333 12.8-55.082667 12.8H0v-128h741.845333a187.050667 187.050667 0 0 1-2.730666-32.768 173.354667 173.354667 0 0 1 41.856-113.152c12.757333-14.677333 27.733333-26.282667 45.056-34.816 17.28-8.533333 35.968-12.8 55.978666-12.8z"
          fill="#45A1FF"/>
    <path d="M404.138667 204.8A140.8 140.8 0 0 0 395.008 256H57.344v128H491.52a22.016 22.016 0 0 0 9.088 2.048h10.922667c15.786667 0 30.634667-3.413333 44.586666-10.24 13.952-6.826667 26.24-16.042667 36.864-27.648 10.666667-11.605333 18.986667-25.429333 25.045334-41.472A142.08 142.08 0 0 0 627.114667 256c0-18.432-2.986667-35.498667-9.088-51.2a135.04 135.04 0 0 0-25.045334-41.472c-10.581333-11.946667-22.912-21.333333-36.864-28.16a100.181333 100.181333 0 0 0-44.586666-10.24c-16.384 0-31.573333 3.413333-45.525334 10.24-13.952 6.826667-26.24 16.213333-36.864 28.16-10.581333 11.946667-18.944 25.770667-25.002666 41.472z"
          fill="#CDE6FF"/>
</svg>
