<?xml version="1.0" standalone="no"?><!DOCTYPE svg PUBLIC "-//W3C//DTD SVG 1.1//EN"
        "http://www.w3.org/Graphics/SVG/1.1/DTD/svg11.dtd">
<svg class="icon" width="200px" height="200.00px" viewBox="0 0 1024 1024" version="1.1"
     xmlns="http://www.w3.org/2000/svg">
    <path d="M29.40928 549.60128a55.11168 55.11168 0 0 1 55.11168-55.11168h54.14912a55.11168 55.11168 0 0 1 0 110.22336H84.52096a55.11168 55.11168 0 0 1-55.11168-55.11168z"
          fill="#198043"/>
    <path d="M715.89888 11.6736l183.37792 240.96768 1.86368-1.1264V951.296a61.44 61.44 0 0 1-61.44 61.44H201.80992a61.44 61.44 0 0 1-61.44-61.44V73.1136a61.44 61.44 0 0 1 61.44-61.44h514.08896z"
          fill="#D8DFE3"/>
    <path d="M771.19488 179.6096a20.48 20.48 0 0 0-20.48-20.48H530.78016v169.5744h240.4352V179.6096zM251.84256 179.6096a20.48 20.48 0 0 1 20.48-20.48h219.9552v169.5744h-240.4352V179.6096zM251.84256 512.63488a20.48 20.48 0 0 0 20.48 20.48h219.9552V363.52h-240.4352v149.11488zM771.19488 512.63488a20.48 20.48 0 0 1-20.48 20.48H530.78016V363.52h240.4352v149.11488zM27.29984 666.15296a61.44 61.44 0 0 1 61.44-61.44h846.5408a61.44 61.44 0 0 1 61.44 61.44V951.296a61.44 61.44 0 0 1-61.44 61.44H88.73984a61.44 61.44 0 0 1-61.44-61.44V666.15296z"
          fill="#1FB35B"/>
    <path d="M85.66784 604.30336C42.3936 603.136 30.3104 571.57632 29.696 555.90912l-2.37568 109.09696 34.6112 35.10272c25.94816-31.45728 66.99008-94.67904 23.73632-95.80544z"
          fill="#D9D9D9"/>
    <path d="M85.66784 604.30336C42.3936 603.136 30.3104 571.57632 29.696 555.90912l-2.37568 109.09696 34.6112 35.10272c25.94816-31.45728 66.99008-94.67904 23.73632-95.80544z"
          fill="#1FB35B"/>
    <path d="M716.75904 11.20256c7.96672 4.15744 14.90944 10.0352 20.31616 17.2032l80.32256 106.27072 65.24928 91.62752 18.49344 26.50112h-122.94144a61.44 61.44 0 0 1-61.44-61.44V11.20256z"
          fill="#AFBDC7"/>
    <path d="M148.3776 722.37056a12.288 12.288 0 0 1 10.01472-19.41504h10.0352a12.288 12.288 0 0 1 10.11712 5.30432l38.99392 56.48384a12.288 12.288 0 0 0 20.21376 0l38.99392-56.48384a12.288 12.288 0 0 1 10.11712-5.3248h9.9328a12.288 12.288 0 0 1 9.97376 19.456l-54.272 75.61216a12.288 12.288 0 0 0 0 14.336l59.41248 82.69824a12.288 12.288 0 0 1-9.97376 19.456h-9.9328a12.288 12.288 0 0 1-10.09664-5.3248l-44.15488-63.8976a12.288 12.288 0 0 0-20.21376 0l-44.1344 63.8976a12.288 12.288 0 0 1-10.11712 5.3248h-10.0352a12.288 12.288 0 0 1-10.01472-19.41504l59.02336-82.78016a12.288 12.288 0 0 0 0-14.25408l-53.88288-75.6736zM346.58304 715.24352a12.288 12.288 0 0 1 12.288-12.288h8.17152a12.288 12.288 0 0 1 12.288 12.288v159.41632a12.288 12.288 0 0 0 12.288 12.288h94.59712a12.288 12.288 0 0 1 12.288 12.288v2.9696a12.288 12.288 0 0 1-12.288 12.288h-127.34464a12.288 12.288 0 0 1-12.288-12.288v-186.9824zM599.42912 698.79808c25.16992 0 44.87168 5.03808 59.12576 15.70816 12.0832 8.74496 19.94752 21.23776 23.69536 37.66272 1.61792 7.04512-4.15744 13.312-11.38688 13.312h-9.4208c-5.75488 0-10.60864-4.07552-12.57472-9.48224-3.21536-8.9088-7.8848-15.70816-14.27456-20.1728-8.47872-6.20544-20.60288-9.17504-36.98688-9.17504-14.25408 0-25.16992 2.06848-32.74752 6.22592-9.40032 4.73088-13.94688 12.43136-13.94688 23.10144 0 9.48224 5.16096 16.896 16.0768 22.528 4.85376 2.6624 17.28512 7.10656 37.60128 13.02528 29.10208 8.88832 48.20992 15.70816 56.68864 20.74624 18.51392 10.9568 27.91424 26.07104 27.91424 45.62944 0 18.96448-7.5776 33.77152-22.7328 44.72832-15.17568 10.67008-36.41344 16.01536-63.6928 16.01536-26.37824 0-47.0016-5.3248-61.8496-15.42144-14.848-10.32192-24.04352-25.51808-27.79136-45.60896-1.31072-6.98368 4.4032-13.04576 11.50976-13.04576h8.97024c6.10304 0 11.1616 4.5056 12.8 10.38336 3.13344 11.34592 8.47872 19.92704 16.03584 25.45664 8.78592 6.53312 22.1184 9.78944 40.32512 9.78944 16.384 0 29.40928-2.9696 39.1168-8.2944s14.5408-12.73856 14.5408-22.2208c0-11.8784-6.9632-21.05344-20.60288-27.8528-4.85376-2.37568-19.10784-7.10656-43.06944-14.2336-26.68544-8.2944-43.04896-13.9264-49.72544-17.46944-16.67072-9.78944-24.86272-24.00256-24.86272-42.37312 0-18.65728 7.8848-33.1776 23.9616-43.84768 15.1552-10.07616 34.26304-15.11424 57.30304-15.11424zM717.1072 722.37056a12.288 12.288 0 0 1 10.01472-19.41504h10.0352a12.288 12.288 0 0 1 10.11712 5.30432l38.99392 56.48384a12.288 12.288 0 0 0 20.21376 0l38.99392-56.48384a12.288 12.288 0 0 1 10.09664-5.3248h9.9328a12.288 12.288 0 0 1 9.99424 19.456l-54.272 75.61216a12.288 12.288 0 0 0 0 14.336l59.41248 82.69824a12.288 12.288 0 0 1-9.97376 19.456h-9.9328a12.288 12.288 0 0 1-10.09664-5.3248l-44.15488-63.8976a12.288 12.288 0 0 0-20.21376 0l-44.15488 63.8976a12.288 12.288 0 0 1-10.09664 5.3248h-10.0352a12.288 12.288 0 0 1-10.01472-19.41504l59.00288-82.78016a12.288 12.288 0 0 0 0-14.25408l-53.8624-75.6736z"
          fill="#D8DFE3"/>
</svg>
