<?xml version="1.0" standalone="no"?><!DOCTYPE svg PUBLIC "-//W3C//DTD SVG 1.1//EN"
        "http://www.w3.org/Graphics/SVG/1.1/DTD/svg11.dtd">
<svg class="icon" width="200px" height="200.00px" viewBox="0 0 1024 1024" version="1.1"
     xmlns="http://www.w3.org/2000/svg">
    <path d="M600.967529 696.32a145.889882 145.889882 0 1 1 207.932236 132.096 63.849412 63.849412 0 0 0-20.540236 14.637176c-4.457412 5.12-5.421176 8.794353-5.421176 11.203765v7.649883a36.141176 36.141176 0 1 1-72.282353 0v-7.649883c0-48.188235 39.514353-78.125176 67.463529-91.25647a73.607529 73.607529 0 1 0-104.869647-66.680471 36.141176 36.141176 0 0 1-72.282353 0zM746.917647 988.461176a38.369882 38.369882 0 1 0-0.060235-76.8 38.369882 38.369882 0 0 0 0 76.739765zM225.701647 214.196706a36.141176 36.141176 0 0 1 36.141177-36.141177H625.242353a36.141176 36.141176 0 1 1 0 72.282353H261.842824a36.141176 36.141176 0 0 1-36.141177-36.141176zM225.701647 368.158118a36.141176 36.141176 0 0 1 36.141177-36.141177H625.242353a36.141176 36.141176 0 1 1 0 72.282353H261.842824a36.141176 36.141176 0 0 1-36.141177-36.141176zM225.701647 522.179765a36.141176 36.141176 0 0 1 36.141177-36.141177h189.741176a36.141176 36.141176 0 0 1 0 72.282353h-189.741176a36.141176 36.141176 0 0 1-36.141177-36.141176z"
          fill="#A3A3A3"/>
    <path d="M84.329412 132.517647A108.423529 108.423529 0 0 1 192.752941 24.094118h603.075765a108.423529 108.423529 0 0 1 108.423529 108.423529v324.186353a36.141176 36.141176 0 1 1-72.282353 0V132.517647a36.141176 36.141176 0 0 0-36.141176-36.141176H192.752941a36.141176 36.141176 0 0 0-36.141176 36.141176v648.312471a36.141176 36.141176 0 0 0 36.141176 36.141176h261.421177a36.141176 36.141176 0 1 1 0 72.282353H192.752941a108.423529 108.423529 0 0 1-108.423529-108.423529V132.517647z"
          fill="#A3A3A3"/>
</svg>
