<?xml version="1.0" standalone="no"?><!DOCTYPE svg PUBLIC "-//W3C//DTD SVG 1.1//EN"
        "http://www.w3.org/Graphics/SVG/1.1/DTD/svg11.dtd">
<svg class="icon" width="200px" height="200.00px" viewBox="0 0 1024 1024" version="1.1"
     xmlns="http://www.w3.org/2000/svg">
    <path d="M628.254118 715.896471a145.889882 145.889882 0 1 1 207.932235 132.096 63.849412 63.849412 0 0 0-20.540235 14.576941c-4.457412 5.12-5.421176 8.794353-5.421177 11.264v7.589647a36.141176 36.141176 0 0 1-72.282353 0v-7.589647c0-48.248471 39.514353-78.125176 67.46353-91.256471a73.607529 73.607529 0 1 0-104.929883-66.68047 36.141176 36.141176 0 1 1-72.282353 0zM774.144 1007.977412a38.369882 38.369882 0 1 0 0-76.739765 38.369882 38.369882 0 0 0 0 76.739765zM252.988235 233.712941a36.141176 36.141176 0 0 0 36.141177 36.141177h363.339294a36.141176 36.141176 0 0 0 0-72.282353H289.129412a36.141176 36.141176 0 0 0-36.141177 36.141176zM252.988235 387.734588a36.141176 36.141176 0 0 0 36.141177 36.141177h363.339294a36.141176 36.141176 0 0 0 0-72.282353H289.129412a36.141176 36.141176 0 0 0-36.141177 36.141176zM252.988235 541.696a36.141176 36.141176 0 0 1 36.141177-36.141176h189.741176a36.141176 36.141176 0 0 1 0 72.282352H289.129412a36.141176 36.141176 0 0 1-36.141177-36.141176z"
          fill="#909399"/>
    <path d="M111.616 152.094118a108.423529 108.423529 0 0 1 108.423529-108.42353h603.075765a108.423529 108.423529 0 0 1 108.42353 108.42353v324.126117a36.141176 36.141176 0 0 1-72.282353 0V152.094118a36.141176 36.141176 0 0 0-36.141177-36.141177H220.039529a36.141176 36.141176 0 0 0-36.141176 36.141177v648.31247a36.141176 36.141176 0 0 0 36.141176 36.141177h261.421177a36.141176 36.141176 0 1 1 0 72.282353h-261.421177a108.423529 108.423529 0 0 1-108.423529-108.42353V152.094118z"
          fill="#909399"/>
</svg>
