<?xml version="1.0" standalone="no"?><!DOCTYPE svg PUBLIC "-//W3C//DTD SVG 1.1//EN"
        "http://www.w3.org/Graphics/SVG/1.1/DTD/svg11.dtd">
<svg class="icon" width="200px" height="200.00px" viewBox="0 0 1024 1024" version="1.1"
     xmlns="http://www.w3.org/2000/svg">
    <path d="M757.838769 429.528615a15.753846 15.753846 0 0 0-22.212923 0L578.323692 586.830769A15.753846 15.753846 0 0 1 551.384615 575.803077V41.905231a15.753846 15.753846 0 0 0-15.753846-15.753846h-47.261538a15.753846 15.753846 0 0 0-15.753846 15.753846v533.819077a15.753846 15.753846 0 0 1-26.860308 11.106461L288.452923 429.528615a15.753846 15.753846 0 0 0-22.291692 0l-33.398154 33.398154a15.753846 15.753846 0 0 0 0 22.291693l268.130461 268.130461a15.753846 15.753846 0 0 0 22.291693 0L791.315692 485.218462a15.753846 15.753846 0 0 0 0-22.291693l-33.476923-33.398154zM115.554462 656.305231c8.664615 0 15.753846 7.089231 15.753846 15.753846v244.184615c0 8.664615 7.089231 15.753846 15.753846 15.753846h729.954461a15.753846 15.753846 0 0 0 15.753847-15.753846v-244.184615c0-8.664615 7.089231-15.753846 15.753846-15.753846h47.261538c8.664615 0 15.753846 7.089231 15.753846 15.753846v322.953846a15.753846 15.753846 0 0 1-15.753846 15.753846H68.292923a15.753846 15.753846 0 0 1-15.753846-15.753846v-322.953846c0-8.664615 7.089231-15.753846 15.753846-15.753846h47.261539z"/>
</svg>
