<?xml version="1.0" standalone="no"?><!DOCTYPE svg PUBLIC "-//W3C//DTD SVG 1.1//EN"
        "http://www.w3.org/Graphics/SVG/1.1/DTD/svg11.dtd">
<svg class="icon" width="200px" height="200.00px" viewBox="0 0 1024 1024" version="1.1"
     xmlns="http://www.w3.org/2000/svg">
    <path d="M91.022222 216.177778a193.422222 193.422222 0 1 1 386.844445 0 193.422222 193.422222 0 0 1-386.844445 0zM284.444444 91.022222A125.155556 125.155556 0 1 0 284.444444 341.333333a125.155556 125.155556 0 0 0 0-250.311111zM546.133333 216.177778a193.422222 193.422222 0 1 1 386.844445 0 193.422222 193.422222 0 0 1-386.844445 0zM739.555556 91.022222A125.155556 125.155556 0 1 0 739.555556 341.333333a125.155556 125.155556 0 0 0 0-250.311111zM248.490667 568.888889C166.798222 568.888889 91.022222 649.728 91.022222 762.311111V967.111111a34.133333 34.133333 0 1 1-68.266666 0v-204.8c0-138.808889 95.800889-261.688889 225.735111-261.688889H363.52c58.140444 0 103.082667 28.615111 131.982222 54.556445a276.48 276.48 0 0 1 44.657778 51.768889l0.739556 1.137777 0.227555 0.398223 0.056889 0.113777s0.056889 0.113778-27.989333 17.066667l28.046222-17.066667a34.133333 34.133333 0 0 1-58.311111 35.555556l-0.284445-0.398222a173.226667 173.226667 0 0 0-7.736889-10.808889c-5.688889-7.338667-14.165333-17.180444-25.031111-26.965334-22.186667-19.911111-51.484444-37.091556-86.357333-37.091555H248.604444zM527.473778 555.406222c28.216889-25.827556 72.362667-54.784 129.365333-54.784h116.394667c130.844444 0 228.010667 122.481778 228.010666 261.688889V967.111111a34.133333 34.133333 0 1 1-68.266666 0v-204.8c0-112.128-76.458667-193.422222-159.744-193.422222h-116.394667c-33.052444 0-61.44 16.896-83.171555 36.864a207.985778 207.985778 0 0 0-31.857778 37.376 34.133333 34.133333 0 0 1-29.809778 17.408c-19.228444-5.973333-33.848889-29.582222-33.962667-37.717333 0.398222-2.673778 1.365333-6.599111 1.763556-7.850667 0.625778-1.706667 1.308444-3.072 1.422222-3.356445a37.888 37.888 0 0 1 2.332445-4.152888l2.446222-3.868445a276.309333 276.309333 0 0 1 41.472-48.184889zM182.044444 876.088889a34.133333 34.133333 0 0 1 34.133334-34.133333h614.4a34.133333 34.133333 0 0 1 0 68.266666H216.177778a34.133333 34.133333 0 0 1-34.133334-34.133333zM722.204444 766.748444a34.133333 34.133333 0 0 1 48.298667 0.113778l84.593778 85.162667a34.133333 34.133333 0 0 1 0.341333 47.786667l-84.650666 87.438222a34.133333 34.133333 0 1 1-49.038223-47.502222l61.326223-63.374223-61.041778-61.383111a34.133333 34.133333 0 0 1 0.170666-48.241778zM316.131556 766.293333a34.133333 34.133333 0 0 1-0.113778 48.241778l-61.895111 61.610667 62.065777 62.805333a34.133333 34.133333 0 1 1-48.526222 47.957333L181.703111 899.982222a34.133333 34.133333 0 0 1 0.170667-48.184889l85.959111-85.560889a34.133333 34.133333 0 0 1 48.298667 0.113778z"/>
</svg>
