<?xml version="1.0" standalone="no"?><!DOCTYPE svg PUBLIC "-//W3C//DTD SVG 1.1//EN"
        "http://www.w3.org/Graphics/SVG/1.1/DTD/svg11.dtd">
<svg class="icon" width="200px" height="187.55px" viewBox="0 0 1092 1024" version="1.1"
     xmlns="http://www.w3.org/2000/svg">
    <path d="M237.1584 387.549867l42.939733-4.096a13.653333 13.653333 0 0 0 12.219734-11.6736l5.9392-42.734934a250.402133 250.402133 0 0 1 475.272533-69.768533l12.288 26.555733a13.653333 13.653333 0 0 0 10.24 7.7824l28.8768 4.5056a182.135467 182.135467 0 0 1 27.2384 353.211734 14.336 14.336 0 0 0-10.24 13.5168v42.871466c0 8.533333 7.7824 15.018667 16.042667 12.970667a250.402133 250.402133 0 0 0-15.291734-488.789333 14.472533 14.472533 0 0 1-10.308266-7.850667 318.600533 318.600533 0 0 0-600.064 84.855467 14.7456 14.7456 0 0 1-12.288 12.014933 204.8 204.8 0 0 0 16.657066 406.869333 12.970667 12.970667 0 0 0 13.653334-13.175466v-40.96c0-7.509333-6.144-13.585067-13.653334-14.336a136.533333 136.533333 0 0 1 0.477867-271.701334zM713.728 788.2752a13.653333 13.653333 0 0 1-19.319467 0l-90.794666-90.794667a13.653333 13.653333 0 0 0-23.3472 9.557334v280.644266a13.653333 13.653333 0 0 1-13.653334 13.653334h-40.96a13.653333 13.653333 0 0 1-13.653333-13.653334v-280.576a13.653333 13.653333 0 0 0-23.278933-9.693866l-90.794667 90.794666a13.653333 13.653333 0 0 1-19.319467 0l-28.945066-28.945066a13.653333 13.653333 0 0 1 0-19.2512l186.845866-186.914134a13.653333 13.653333 0 0 1 19.319467 0l186.845867 186.914134a13.653333 13.653333 0 0 1 0 19.319466l-28.945067 28.945067z"/>
</svg>
