<?xml version="1.0" standalone="no"?><!DOCTYPE svg PUBLIC "-//W3C//DTD SVG 1.1//EN"
        "http://www.w3.org/Graphics/SVG/1.1/DTD/svg11.dtd">
<svg class="icon" width="200px" height="200.00px" viewBox="0 0 1024 1024" version="1.1"
     xmlns="http://www.w3.org/2000/svg">
    <path d="M109.66528 100.571429C109.66528 55.149714 146.52928 18.285714 191.950994 18.285714h457.142857a36.571429 36.571429 0 0 1 36.571429 36.571429v192H877.66528a36.571429 36.571429 0 0 1 36.571429 36.571428v640c0 45.421714-36.864 82.285714-82.285715 82.285715h-640A82.285714 82.285714 0 0 1 109.66528 923.428571V100.571429z m82.285714-9.142858A9.142857 9.142857 0 0 0 182.808137 100.571429v822.857142c0 5.046857 4.096 9.142857 9.142857 9.142858h640c5.12 0 9.142857-4.096 9.142857-9.142858v-603.428571H649.093851a36.571429 36.571429 0 0 1-36.571428-36.571429V91.428571h-420.571429zM623.20128 28.964571a36.571429 36.571429 0 0 1 51.785143 0l228.571428 228.571429a36.571429 36.571429 0 0 1-51.785142 51.785143L623.20128 80.749714a36.571429 36.571429 0 0 1 0-51.785143zM511.950994 406.966857a36.571429 36.571429 0 0 1 36.571429 36.571429v320a36.571429 36.571429 0 0 1-73.142857 0V443.538286a36.571429 36.571429 0 0 1 36.571428-36.571429zM315.416137 603.574857a36.571429 36.571429 0 0 1 36.571429-36.571428h320a36.571429 36.571429 0 0 1 0 73.142857H351.987566a36.571429 36.571429 0 0 1-36.571429-36.571429z"/>
</svg>
