<?xml version="1.0" standalone="no"?><!DOCTYPE svg PUBLIC "-//W3C//DTD SVG 1.1//EN"
        "http://www.w3.org/Graphics/SVG/1.1/DTD/svg11.dtd">
<svg class="icon" width="200px" height="200.00px" viewBox="0 0 1024 1024" version="1.1"
     xmlns="http://www.w3.org/2000/svg">
    <path d="M757.838769 358.006154a15.753846 15.753846 0 0 1-22.212923 0L578.323692 200.704a15.753846 15.753846 0 0 0-26.939077 11.106462v533.819076a15.753846 15.753846 0 0 1-15.753846 15.753847h-47.261538a15.753846 15.753846 0 0 1-15.753846-15.753847V211.810462a15.753846 15.753846 0 0 0-26.860308-11.106462L288.452923 358.006154a15.753846 15.753846 0 0 1-22.291692 0l-33.398154-33.476923a15.753846 15.753846 0 0 1 0-22.212923L500.893538 34.185846a15.753846 15.753846 0 0 1 22.291693 0l268.130461 268.130462a15.753846 15.753846 0 0 1 0 22.212923l-33.476923 33.476923zM115.554462 656.384c8.664615 0 15.753846 7.089231 15.753846 15.753846v244.184616c0 8.664615 7.089231 15.753846 15.753846 15.753846h729.954461a15.753846 15.753846 0 0 0 15.753847-15.753846v-244.184616c0-8.664615 7.089231-15.753846 15.753846-15.753846h47.261538c8.664615 0 15.753846 7.089231 15.753846 15.753846v322.953846a15.753846 15.753846 0 0 1-15.753846 15.753846H68.292923a15.753846 15.753846 0 0 1-15.753846-15.753846v-322.953846c0-8.664615 7.089231-15.753846 15.753846-15.753846h47.261539z"/>
</svg>
