<?xml version="1.0" standalone="no"?><!DOCTYPE svg PUBLIC "-//W3C//DTD SVG 1.1//EN"
        "http://www.w3.org/Graphics/SVG/1.1/DTD/svg11.dtd">
<svg class="icon" width="200px" height="200.00px" viewBox="0 0 1024 1024" version="1.1"
     xmlns="http://www.w3.org/2000/svg">
    <path d="M32 512a480 480 0 1 1 960 0A480 480 0 0 1 32 512z m480-408.896a408.896 408.896 0 1 0 0 817.792 408.896 408.896 0 0 0 0-817.792zM512 298.816c19.648 0 35.584 15.872 35.584 35.52v355.584a35.584 35.584 0 1 1-71.168 0V334.336c0-19.648 16-35.52 35.584-35.52zM298.624 511.936c0-19.648 16-35.584 35.584-35.584h355.52a35.584 35.584 0 1 1 0 71.104H334.272A35.584 35.584 0 0 1 298.624 512z"/>
</svg>
