<?xml version="1.0" standalone="no"?><!DOCTYPE svg PUBLIC "-//W3C//DTD SVG 1.1//EN"
        "http://www.w3.org/Graphics/SVG/1.1/DTD/svg11.dtd">
<svg class="icon" width="200px" height="200.00px" viewBox="0 0 1024 1024" version="1.1"
     xmlns="http://www.w3.org/2000/svg">
    <path d="M468.557229 459.324067v-203.427039H570.236425v203.427039h203.427039v101.673475H570.236425v203.427039H468.557229v-203.427039h-203.427039V459.324067h203.427039z m50.879643 559.327106a508.470346 508.470346 0 0 1-363.605811-146.712313A508.493229 508.493229 0 0 1 43.991955 314.116291a508.521832 508.521832 0 0 1 831.001743-161.334347A508.527553 508.527553 0 0 1 519.436872 1018.651173z m0-101.673475a406.819754 406.819754 0 1 0 0-813.633787 406.819754 406.819754 0 0 0 0 813.633787z"
          fill="#909399"/>
</svg>
