<?xml version="1.0" standalone="no"?><!DOCTYPE svg PUBLIC "-//W3C//DTD SVG 1.1//EN"
        "http://www.w3.org/Graphics/SVG/1.1/DTD/svg11.dtd">
<svg class="icon" width="200px" height="200.00px" viewBox="0 0 1024 1024" version="1.1"
     xmlns="http://www.w3.org/2000/svg">
    <path d="M989.584244 335.352203a109.453645 109.453645 0 0 0 23.733929-119.283005 109.464041 109.464041 0 0 0-23.733929-35.50733L843.386152 34.410558a109.438051 109.438051 0 0 0-154.738355 0L32.061076 691.002477A109.427655 109.427655 0 0 0 0 768.369056v200.917117A54.719025 54.719025 0 0 0 54.713827 1024H255.636142a109.417259 109.417259 0 0 0 77.366579-32.066274L989.589442 335.352203zM591.913584 285.888325L738.111675 431.977259l-482.480731 482.589888H109.432853v-146.198091L591.913584 285.888325z m223.56467 68.774335l-146.146112-146.140914 96.682234-96.734213 146.203289 146.198091-96.739411 96.682234z"
          fill="#909399"/>
</svg>
