<?xml version="1.0" standalone="no"?><!DOCTYPE svg PUBLIC "-//W3C//DTD SVG 1.1//EN"
        "http://www.w3.org/Graphics/SVG/1.1/DTD/svg11.dtd">
<svg class="icon" width="200px" height="200.00px" viewBox="0 0 1024 1024" version="1.1"
     xmlns="http://www.w3.org/2000/svg">
    <path d="M68.266667 512a443.733333 443.733333 0 1 0 887.466666 0A443.733333 443.733333 0 0 0 68.266667 512zM512 0a512 512 0 1 1 0 1024A512 512 0 0 1 512 0zM522.467556 522.467556a16.497778 16.497778 0 1 1-23.324445-23.324445 16.497778 16.497778 0 0 1 23.324445 23.324445z m-48.241778-48.241778a51.768889 51.768889 0 1 0 73.216 73.216 51.768889 51.768889 0 0 0-73.216-73.216zM461.368889 436.337778l212.764444-95.687111a5.688889 5.688889 0 0 1 7.566223 7.452444l-94.094223 214.243556a22.755556 22.755556 0 0 1-11.093333 11.377777L347.704889 682.097778a5.688889 5.688889 0 0 1-7.566222-7.566222L450.161778 447.146667a22.755556 22.755556 0 0 1 11.207111-10.808889z m-46.08-54.840889a34.133333 34.133333 0 0 0-18.773333 18.318222l-133.973334 314.538667a34.133333 34.133333 0 0 0 44.487111 44.942222l316.871111-131.754667a34.133333 34.133333 0 0 0 18.716445-19.171555l116.906667-302.136889a34.133333 34.133333 0 0 0-44.430223-44.032L415.288889 381.496889z"/>
</svg>
