<?xml version="1.0" standalone="no"?><!DOCTYPE svg PUBLIC "-//W3C//DTD SVG 1.1//EN"
        "http://www.w3.org/Graphics/SVG/1.1/DTD/svg11.dtd">
<svg t="1686816772123" class="icon" viewBox="0 0 1144 1024" version="1.1" xmlns="http://www.w3.org/2000/svg" p-id="3907"
     width="223.4375" height="200">
    <path d="M702.945882 918.287059c-87.582118 42.405647-166.189176 42.465882-223.292235 9.456941-57.223529-33.008941-96.376471-101.074824-103.544471-198.174118-7.047529-96.557176 19.154824-213.955765 84.329412-326.77647 65.054118-112.820706 153.6-194.198588 240.880941-236.42353 87.582118-42.345412 166.189176-42.405647 223.292236-9.396706 57.223529 33.008941 96.376471 101.074824 103.54447 198.174118 7.047529 96.557176-19.154824 213.955765-84.329411 326.776471-65.054118 112.820706-153.6 194.198588-240.820706 236.363294z m-259.433411 72.041412c168.056471 97.039059 420.141176-24.816941 562.959058-272.26353 142.878118-247.446588 122.398118-526.637176-45.658353-623.676235-168.056471-97.099294-420.201412 24.816941-563.019294 272.263529-142.878118 247.386353-122.398118 526.637176 45.718589 623.676236z"
          fill="#A3A3A3" p-id="3908"></path>
    <path d="M750.832941 730.895059c-8.975059 96.918588-49.392941 164.201412-107.218823 196.126117-57.765647 31.924706-136.312471 30.418824-223.11153-13.552941-86.437647-43.791059-173.477647-126.795294-236.483764-240.820706C121.072941 558.501647 96.978824 440.681412 105.893647 344.244706c8.914824-96.978824 49.392941-164.261647 107.218824-196.186353 57.705412-31.924706 136.252235-30.418824 223.051294 13.552941 86.437647 43.791059 173.477647 126.855529 236.483764 240.880941 63.006118 114.025412 87.04 231.905882 78.185412 328.282353z m-72.282353 259.433412c169.863529-93.967059 195.584-372.736 57.344-622.772706-138.179765-249.976471-387.915294-376.591059-557.778823-282.744471-169.863529 93.967059-195.523765 372.736-57.344 622.772706 138.24 250.036706 387.915294 376.651294 557.778823 282.744471z"
          fill="#A3A3A3" p-id="3909"></path>
</svg>
