<?xml version="1.0" standalone="no"?><!DOCTYPE svg PUBLIC "-//W3C//DTD SVG 1.1//EN"
        "http://www.w3.org/Graphics/SVG/1.1/DTD/svg11.dtd">
<svg class="icon" width="200px" height="179.96px" viewBox="0 0 1138 1024" version="1.1"
     xmlns="http://www.w3.org/2000/svg">
    <path d="M1025.425408 199.532544H119.308288a28.319744 28.319744 0 0 0-28.319744 28.319744v679.583744a28.34432 28.34432 0 0 0 17.481728 26.157056c3.44064 1.425408 7.12704 2.162688 10.838016 2.162688h906.11712a28.30336 28.30336 0 0 0 28.311552-28.319744V227.852288a28.270592 28.270592 0 0 0-17.473536-26.165248 28.34432 28.34432 0 0 0-10.838016-2.154496z m-906.11712-84.95104h906.11712a113.303552 113.303552 0 0 1 104.644608 69.926912 113.393664 113.393664 0 0 1 8.617984 43.33568v679.591936a113.270784 113.270784 0 0 1-113.262592 113.262592H119.308288A113.229824 113.229824 0 0 1 6.045696 907.436032V227.852288a113.262592 113.262592 0 0 1 113.262592-113.262592z"
          fill="#909399"/>
    <path d="M303.366144 1.31072c28.311552 0 42.47552 14.155776 42.47552 42.47552v84.95104c0 28.311552-14.163968 42.467328-42.47552 42.467328-28.319744 0-42.47552-14.155776-42.47552-42.467328V43.78624c0-28.319744 14.155776-42.47552 42.47552-42.47552zM841.367552 1.31072c28.319744 0 42.47552 14.155776 42.47552 42.47552v84.95104c0 28.311552-14.155776 42.467328-42.47552 42.467328-28.311552 0-42.467328-14.155776-42.467328-42.467328V43.78624c0-28.319744 14.155776-42.47552 42.467328-42.47552zM62.676992 341.106688h1019.379712v84.95104H62.676992v-84.95104z"
          fill="#909399"/>
</svg>
