<?xml version="1.0" standalone="no"?><!DOCTYPE svg PUBLIC "-//W3C//DTD SVG 1.1//EN"
        "http://www.w3.org/Graphics/SVG/1.1/DTD/svg11.dtd">
<svg class="icon" width="200px" height="177.78px" viewBox="0 0 1152 1024" version="1.1"
     xmlns="http://www.w3.org/2000/svg">
    <path d="M1065.472 112.128h-158.72V39.936c0-22.016-19.456-39.936-43.008-39.936-23.552 0-43.008 17.92-43.008 39.936V112.64H331.264V39.936c0-22.016-19.456-39.936-43.008-39.936s-43.52 17.92-43.52 39.936V112.64H86.528C38.4 112.128 0 147.968 0 192V944.128C0 988.16 38.4 1024 86.528 1024h979.456c47.616 0 86.528-35.84 86.528-79.36v-752.64c-0.512-44.032-38.912-79.872-87.04-79.872z m0 832.512H86.528V429.056h979.456v515.584zM86.528 349.696V192h979.456v157.696H86.528z"/>
</svg>
