<?xml version="1.0" standalone="no"?><!DOCTYPE svg PUBLIC "-//W3C//DTD SVG 1.1//EN"
        "http://www.w3.org/Graphics/SVG/1.1/DTD/svg11.dtd">
<svg class="icon" width="200px" height="200.00px" viewBox="0 0 1024 1024" version="1.1"
     xmlns="http://www.w3.org/2000/svg">
    <path d="M914.285714 137.142857H722.285714v-73.142857A9.142857 9.142857 0 0 0 713.142857 54.857143h-64a9.142857 9.142857 0 0 0-9.142857 9.142857v73.142857h-292.571429v-73.142857A9.142857 9.142857 0 0 0 338.285714 54.857143H274.285714a9.142857 9.142857 0 0 0-9.142857 9.142857v73.142857H73.142857a36.571429 36.571429 0 0 0-36.571428 36.571429V932.571429a36.571429 36.571429 0 0 0 36.571428 36.571428H914.285714a36.571429 36.571429 0 0 0 36.571429-36.571428V173.714286a36.571429 36.571429 0 0 0-36.571429-36.571429z m-45.714285 749.714286H118.857143V452.534857h749.714286v434.322286z m-749.714286-512V219.428571h146.285714v54.857143c0 5.046857 4.096 9.142857 9.142857 9.142857h64a9.142857 9.142857 0 0 0 9.142857-9.142857V219.428571h292.571429v54.857143c0 5.046857 4.096 9.142857 9.142857 9.142857h64a9.142857 9.142857 0 0 0 9.142857-9.142857V219.428571h146.285715v155.428572H118.857143z"
          fill="#000000" fill-opacity=".25"/>
</svg>
