<?xml version="1.0" standalone="no"?><!DOCTYPE svg PUBLIC "-//W3C//DTD SVG 1.1//EN"
        "http://www.w3.org/Graphics/SVG/1.1/DTD/svg11.dtd">
<svg class="icon" width="200px" height="175.04px" viewBox="0 0 1170 1024" version="1.1"
     xmlns="http://www.w3.org/2000/svg">
    <path d="M601.633095 215.829155a179.406614 179.406614 0 1 1-358.74009 0 179.406614 179.406614 0 0 1 358.74009 0zM926.656736 605.94529a32.911935 32.911935 0 0 1 45.272195-11.043783c82.426112 49.953003 113.875295 129.45361 125.13849 200.616527 8.483965 53.390472 5.924148 107.292908 4.388258 141.155632-0.511963 9.87358-0.877652 18.064995-0.877652 23.989144a32.911935 32.911935 0 1 1-65.823869 0c0-9.800443 0.511963-20.844225 1.023927-33.131348 1.609028-33.643311 3.510606-75.843725-3.656882-121.701021-9.654168-60.411685-34.5941-118.409828-94.347547-154.612957a32.911935 32.911935 0 0 1-11.043782-45.272194zM206.982427 212.245411a212.099136 212.099136 0 1 1 424.344547 0 212.099136 212.099136 0 0 1-424.344547 0zM419.154701 62.166988a150.078423 150.078423 0 1 0 0 300.156846 150.078423 150.078423 0 0 0 0-300.156846zM744.690305 41.030212a31.083494 31.083494 0 0 0 10.531819 42.566103 149.932148 149.932148 0 0 1 0 257.298193 31.083494 31.083494 0 0 0 32.034284 53.171059 212.099136 212.099136 0 0 0 0-363.640312 31.083494 31.083494 0 0 0-42.566103 10.531819zM360.864007 569.303335h116.581387c56.827941 0 101.368759 0 137.133062 2.925506 36.422541 2.925505 66.555246 9.142204 93.762446 23.038354 44.833369 22.818942 81.182773 59.241483 104.074851 104.001714 13.89615 27.280337 20.039711 57.339904 22.965217 93.762446 2.925505 35.83744 2.925505 80.305121 2.925505 137.133062v32.473109c0 17.114206-13.89615 31.010356-31.010356 31.010356H31.08642A31.083494 31.083494 0 0 1 0.002926 962.564388v-32.399971c0-56.827941 0-101.295622 2.925505-137.133062 2.925505-36.422541 9.142204-66.555246 23.038354-93.762446 22.818942-44.760231 59.241483-81.182773 104.001715-104.001714 27.280337-13.89615 57.339904-20.039711 93.762445-23.038354 35.83744-2.925505 80.305121-2.925505 137.133062-2.925506zM158.199626 650.559246c-33.131348 16.894793-60.045997 43.809442-76.94079 76.94079-8.630241 17.041068-13.749875 38.031569-16.455967 70.650953-2.706092 32.911935-2.706092 74.892936-2.706093 133.403043h714.115849c0-58.510106 0-100.491108-2.706092-133.403043-2.632955-32.619384-7.752589-53.609885-16.455968-70.650953A175.896007 175.896007 0 0 0 680.182913 650.559246c-17.041068-8.630241-38.031569-13.749875-70.650954-16.455968-32.911935-2.706092-74.966074-2.706092-133.47618-2.706092H362.253622c-58.510106 0-100.491108 0-133.403043 2.706092-32.619384 2.706092-53.683023 7.825727-70.650953 16.455968zM794.643309 949.692165H38.985284C12.948287 677.912721 122.362186 607.115492 180.360329 605.872152c50.757517 0.438826 202.444968 1.097064 403.646596 0 201.128491-1.097064 235.064353 197.983573 226.946076 297.670166l-16.309692 46.076709z"/>
</svg>
