<?xml version="1.0" standalone="no"?><!DOCTYPE svg PUBLIC "-//W3C//DTD SVG 1.1//EN"
        "http://www.w3.org/Graphics/SVG/1.1/DTD/svg11.dtd">
<svg class="icon" width="200px" height="200.00px" viewBox="0 0 1024 1024" version="1.1"
     xmlns="http://www.w3.org/2000/svg">
    <path d="M1024 511.066667a511.872 511.872 0 0 1-1023.733333 0 511.866667 511.866667 0 0 1 1023.664 0H1024z m-889.6 0a377.722667 377.722667 0 0 0 523.408 353.514666 377.706667 377.706667 0 0 0 231.989333-353.514666 377.717333 377.717333 0 0 0-377.664-370.634667 377.733333 377.733333 0 0 0-377.669333 370.634667H134.4z"
          fill="#ffffff"/>
    <path d="M512.133333 66.666667a444.48 444.48 0 0 1 437.797334 520.837333 444.432 444.432 0 0 1-113.797334 227.829333l-324-304.197333V66.666667z"
          fill="#909399"/>
    <path d="M464.997333 24.464A66.864 66.864 0 0 1 512.133333 5.04a511.866667 511.866667 0 0 1 200.752 40.704 509.344 509.344 0 0 1 168.378667 116.064 505.824 505.824 0 0 1 120 203.413333 503.6 503.6 0 0 1 14.336 235.397334 507.146667 507.146667 0 0 1-130.933333 260.501333 66.837333 66.837333 0 0 1-46.48 20.88 66.88 66.88 0 0 1-47.722667-17.898667l-324-302.522666a66.314667 66.314667 0 0 1-15.530667-22 65.973333 65.973333 0 0 1-5.466666-26.325334V71.328c0-17.578667 7.029333-34.437333 19.530666-46.864z m424.869334 484.213333v4.842667a373.653333 373.653333 0 0 1-61.066667 204.490667l-250-233.461334V143.578667c86.469333 15.424 164.832 60.325333 221.605333 126.986666a374.389333 374.389333 0 0 1 89.461334 238.245334v-0.133334z m-311.066667-365.098666A376.64 376.64 0 0 1 719.466667 199.392L578.8 143.573333z"
          fill="#ffffff"/>
    <path d="M444.8 511.664V136.661333C456-43.733333 578.864 73.333333 780.197333 123.2c201.333333 50 221.002667 451.136 165.002667 581.333333-44.8 104.133333-157.333333 116.202667-208 109.2l-275.2-258.330666c-12.533333-13.536-15.669333-30.666667-17.2-43.733334z"
          fill="#ffffff"/>
</svg>
