<?xml version="1.0" standalone="no"?><!DOCTYPE svg PUBLIC "-//W3C//DTD SVG 1.1//EN"
        "http://www.w3.org/Graphics/SVG/1.1/DTD/svg11.dtd">
<svg class="icon" width="200px" height="200.00px" viewBox="0 0 1024 1024" version="1.1"
     xmlns="http://www.w3.org/2000/svg">
    <path d="M873.411765 63.066353a60.235294 60.235294 0 0 1 60.235294 60.235294v722.823529a60.235294 60.235294 0 0 1-60.235294 60.235295H150.588235a60.235294 60.235294 0 0 1-60.235294-60.235295v-722.823529a60.235294 60.235294 0 0 1 60.235294-60.235294h722.82353z m-722.82353-60.235294a120.470588 120.470588 0 0 0-120.470588 120.470588v722.823529a120.470588 120.470588 0 0 0 120.470588 120.470589h722.82353a120.470588 120.470588 0 0 0 120.470588-120.470589v-722.823529a120.470588 120.470588 0 0 0-120.470588-120.470588H150.588235z"
          fill="#C0C4CC"/>
</svg>
