<?xml version="1.0" standalone="no"?><!DOCTYPE svg PUBLIC "-//W3C//DTD SVG 1.1//EN" "http://www.w3.org/Graphics/SVG/1.1/DTD/svg11.dtd"><svg t="1700631971506" class="icon" viewBox="0 0 1137 1024" version="1.1" xmlns="http://www.w3.org/2000/svg" p-id="8169" xmlns:xlink="http://www.w3.org/1999/xlink" width="222.0703125" height="200"><path d="M22.755556 42.780444a34.133333 34.133333 0 0 1 34.133333-34.133333h1024a34.133333 34.133333 0 0 1 34.133333 34.133333v768a34.133333 34.133333 0 0 1-34.133333 34.133334H711.111111l-118.044444 118.044444a34.133333 34.133333 0 0 1-48.241778 0l-117.987556-118.044444H56.888889a34.133333 34.133333 0 0 1-34.133333-34.133334V42.780444z m68.266666 34.133334v699.733333h349.866667a34.133333 34.133333 0 0 1 24.120889 10.012445L568.888889 890.538667l103.879111-103.879111a34.133333 34.133333 0 0 1 24.120889-10.012445h349.866667v-699.733333H91.022222z" p-id="8170"></path><path d="M261.688889 290.417778a34.133333 34.133333 0 0 1 34.133333 34.133333v204.8a34.133333 34.133333 0 0 1-68.266666 0v-204.8a34.133333 34.133333 0 0 1 34.133333-34.133333zM466.488889 213.560889a34.133333 34.133333 0 0 1 34.133333 34.133333v358.4a34.133333 34.133333 0 1 1-68.266666 0v-358.4a34.133333 34.133333 0 0 1 34.133333-34.133333zM671.288889 341.560889a34.133333 34.133333 0 0 1 34.133333 34.133333v102.4a34.133333 34.133333 0 0 1-68.266666 0v-102.4a34.133333 34.133333 0 0 1 34.133333-34.133333zM876.088889 290.417778a34.133333 34.133333 0 0 1 34.133333 34.133333v204.8a34.133333 34.133333 0 1 1-68.266666 0v-204.8a34.133333 34.133333 0 0 1 34.133333-34.133333z" p-id="8171"></path></svg>