<?xml version="1.0" standalone="no"?><!DOCTYPE svg PUBLIC "-//W3C//DTD SVG 1.1//EN" "http://www.w3.org/Graphics/SVG/1.1/DTD/svg11.dtd"><svg t="1698030035909" class="icon" viewBox="0 0 1024 1024" version="1.1" xmlns="http://www.w3.org/2000/svg" p-id="6138" xmlns:xlink="http://www.w3.org/1999/xlink" width="200" height="200"><path d="M101.432889 94.208a43.463111 43.463111 0 0 0-43.463111 43.463111v579.584c0 24.007111 19.456 43.52 43.463111 43.52h821.134222a43.463111 43.463111 0 0 0 43.463111-43.463111V137.557333a43.463111 43.463111 0 0 0-43.463111-43.406222H101.432889zM0 137.671111C0 81.635556 45.397333 36.238222 101.432889 36.238222h821.134222C978.602667 36.238222 1024 81.635556 1024 137.671111v579.584c0 56.035556-45.397333 101.489778-101.432889 101.489778H101.432889A101.432889 101.432889 0 0 1 0 717.198222V137.671111z" p-id="6139"></path><path d="M512 760.775111a29.013333 29.013333 0 0 1 29.013333 29.013333v168.96a29.013333 29.013333 0 0 1-58.026666 0v-168.96a29.013333 29.013333 0 0 1 29.013333-29.013333zM727.04 239.331556a29.013333 29.013333 0 0 1-2.730667 40.903111l-386.446222 338.090666a29.013333 29.013333 0 1 1-38.115555-43.633777L686.08 236.657778a29.013333 29.013333 0 0 1 40.903111 2.730666z" p-id="6140"></path><path d="M144.896 958.805333a29.013333 29.013333 0 0 1 29.013333-29.013333h676.181334a29.013333 29.013333 0 0 1 0 58.026667H173.909333a29.013333 29.013333 0 0 1-29.013333-29.013334zM294.684444 287.402667a43.463111 43.463111 0 1 0 0 86.926222 43.463111 43.463111 0 0 0 0-86.926222z m-101.489777 43.463111a101.432889 101.432889 0 1 1 202.865777 0 101.432889 101.432889 0 0 1-202.865777 0zM729.315556 480.597333a43.463111 43.463111 0 1 0 0 86.926223 43.463111 43.463111 0 0 0 0-86.926223z m-101.376 43.463111a101.432889 101.432889 0 1 1 202.865777 0 101.432889 101.432889 0 0 1-202.865777 0z" p-id="6141"></path></svg>