<?xml version="1.0" standalone="no"?><!DOCTYPE svg PUBLIC "-//W3C//DTD SVG 1.1//EN"
        "http://www.w3.org/Graphics/SVG/1.1/DTD/svg11.dtd">
<svg class="icon" width="200px" height="200.00px" viewBox="0 0 1024 1024" version="1.1"
     xmlns="http://www.w3.org/2000/svg">
    <path d="M661.188923 341.228308L525.390769 205.430154v503.335384a52.539077 52.539077 0 0 1-104.999384 0v-503.335384L284.593231 341.228308a52.539077 52.539077 0 1 1-74.279385-74.279385L435.751385 41.511385a52.539077 52.539077 0 0 1 74.279384 0L735.468308 267.027692a52.539077 52.539077 0 0 1-74.279385 74.279385z"
          fill="#606266"/>
    <path d="M52.775385 656.305231c28.987077 0 52.539077 23.552 52.539077 52.539077v209.998769h735.15323V708.923077a52.539077 52.539077 0 0 1 104.999385 0v209.998769c0 58.052923-47.025231 105.078154-104.999385 105.078154H105.314462a104.999385 104.999385 0 0 1-105.078154-105.078154V708.923077c0-28.987077 23.552-52.539077 52.539077-52.539077z"
          fill="#606266"/>
</svg>
