<?xml version="1.0" standalone="no"?><!DOCTYPE svg PUBLIC "-//W3C//DTD SVG 1.1//EN"
        "http://www.w3.org/Graphics/SVG/1.1/DTD/svg11.dtd">
<svg class="icon" width="200px" height="200.00px" viewBox="0 0 1024 1024" version="1.1"
     xmlns="http://www.w3.org/2000/svg">
    <path d="M86.893714 915.309714a43.885714 43.885714 0 0 1 43.885715-43.885714h808.082285a43.885714 43.885714 0 1 1 0 87.771429H130.779429a43.885714 43.885714 0 0 1-43.885715-43.885715zM685.129143 63.414857a43.885714 43.885714 0 0 1 31.012571 12.873143l163.986286 164.059429a43.885714 43.885714 0 0 1 0 62.025142l-464.237714 464.457143a43.885714 43.885714 0 0 1-31.012572 12.873143H220.598857a43.885714 43.885714 0 0 1-43.885714-43.885714V572.416a43.885714 43.885714 0 0 1 12.8-31.012571l464.603428-465.115429a43.885714 43.885714 0 0 1 31.012572-12.873143z m0 106.057143L264.484571 590.482286V691.931429h102.180572l420.352-420.571429-101.888-101.961143z"/>
</svg>
