<?xml version="1.0" standalone="no"?><!DOCTYPE svg PUBLIC "-//W3C//DTD SVG 1.1//EN"
        "http://www.w3.org/Graphics/SVG/1.1/DTD/svg11.dtd">
<svg class="icon" width="200px" height="200.00px" viewBox="0 0 1024 1024" version="1.1"
     xmlns="http://www.w3.org/2000/svg">
    <path d="M948.736 260.096l-184.832-184.832c-26.624-26.624-69.632-26.624-96.768 0L547.84 194.56l-48.128 48.128-423.424 423.424c-12.8 12.8-19.968 30.208-19.968 48.128l-1.024 185.856c0 37.888 30.208 68.608 68.096 68.608h0.512l185.856-1.024c3.072 0 5.632-0.512 8.704-0.512H788.48c18.432 0 33.792-14.848 33.792-33.792 0-18.432-14.848-33.792-33.792-33.792H404.992l375.808-375.808L829.44 476.16l119.808-119.808c26.112-26.112 26.112-69.632-0.512-96.256z m-639.488 640l-185.856 1.024 1.024-185.856L547.84 291.328 732.672 476.16l-423.424 423.936zM900.608 308.224l-119.808 119.808-184.832-184.832 119.808-119.808 184.832 184.832z"/>
</svg>
