<?xml version="1.0" standalone="no"?><!DOCTYPE svg PUBLIC "-//W3C//DTD SVG 1.1//EN"
        "http://www.w3.org/Graphics/SVG/1.1/DTD/svg11.dtd">
<svg class="icon" width="200px" height="162.03px" viewBox="0 0 1264 1024" version="1.1"
     xmlns="http://www.w3.org/2000/svg">
    <path d="M44.147277 0c24.332196 0 44.087049 18.068463 44.087048 40.413128v902.64016h1132.410776c24.392424 0 44.147277 18.068463 44.147276 40.3529 0 22.404894-19.754852 40.473356-44.147276 40.473356H44.147277C19.754852 1023.879544 0 1005.811081 0 983.466416V40.3529C0 18.128691 19.754852 0 44.147277 0zM271.388307 758.75497l200.981532-404.131279 321.558405 235.733208L1075.254205 51.495118l40.232444 707.259852H271.388307zM1106.994471 49.266675c21.983296 4.155746 37.582402 19.453711 37.582402 39.389248l-2.3489 710.33149c0 22.344665-21.561699 40.413128-48.182567 40.413128H239.3469a50.892836 50.892836 0 0 1-41.075638-19.15257 34.811904 34.811904 0 0 1-2.107987-39.32902l241.213975-404.131279a48.122339 48.122339 0 0 1 34.149394-21.682155 54.928126 54.928126 0 0 1 41.256323 9.696742L766.102811 555.906364l286.626044-484.596165c9.696742-17.044583 32.222092-26.199271 54.205388-22.043524z m-71.852252 221.338666l-209.654394 368.958004a47.760969 47.760969 0 0 1-34.089166 22.284438 54.988354 54.988354 0 0 1-41.738148-9.636514L495.316786 460.384425l-177.974356 298.18986h717.799789V270.605341z"/>
</svg>
