<?xml version="1.0" standalone="no"?><!DOCTYPE svg PUBLIC "-//W3C//DTD SVG 1.1//EN"
        "http://www.w3.org/Graphics/SVG/1.1/DTD/svg11.dtd">
<svg class="icon" width="200px" height="200.00px" viewBox="0 0 1024 1024" version="1.1"
     xmlns="http://www.w3.org/2000/svg">
    <path d="M186.181818 116.363636h418.909091V930.909091H186.181818V116.363636z m512 159.837091V93.090909A69.818182 69.818182 0 0 0 628.363636 23.272727h-465.454545A69.818182 69.818182 0 0 0 93.090909 93.090909v837.818182H46.545455a46.545455 46.545455 0 1 0 0 93.090909h930.90909a46.545455 46.545455 0 1 0 0-93.090909h-46.545454V442.181818a46.545455 46.545455 0 0 0-22.574546-39.936L698.181818 276.200727z m0 108.544l139.636364 83.781818V930.909091h-139.636364V384.744727z"
          fill="#A3A3A3"/>
</svg>
