<?xml version="1.0" standalone="no"?><!DOCTYPE svg PUBLIC "-//W3C//DTD SVG 1.1//EN"
        "http://www.w3.org/Graphics/SVG/1.1/DTD/svg11.dtd">
<svg class="icon" width="200px" height="200.00px" viewBox="0 0 1024 1024" version="1.1"
     xmlns="http://www.w3.org/2000/svg">
    <path d="M267.337143 68.754286a49.737143 49.737143 0 0 1-5.412572 70.217143l-138.971428 119.076571L264.777143 399.798857a49.737143 49.737143 0 1 1-70.363429 70.363429L14.555429 290.377143a49.737143 49.737143 0 0 1 2.852571-72.996572L197.12 63.341714a49.737143 49.737143 0 0 1 70.217143 5.412572zM0 255.268571a49.737143 49.737143 0 0 1 49.737143-49.810285h590.482286c203.483429 0 375.588571 165.449143 383.488 368.786285 8.411429 215.04-168.521143 398.409143-383.488 398.409143H203.776a49.737143 49.737143 0 1 1 0-99.547428h436.443429c158.573714 0 290.157714-136.557714 284.013714-294.985143-5.851429-149.942857-133.997714-273.115429-284.013714-273.115429H49.810286A49.737143 49.737143 0 0 1 0 255.268571z"/>
</svg>
