<?xml version="1.0" standalone="no"?><!DOCTYPE svg PUBLIC "-//W3C//DTD SVG 1.1//EN"
        "http://www.w3.org/Graphics/SVG/1.1/DTD/svg11.dtd">
<svg class="icon" width="200px" height="189.81px" viewBox="0 0 1079 1024" version="1.1"
     xmlns="http://www.w3.org/2000/svg">
    <path d="M1027.584 925.184H962.56c0-2.048 0.512-4.096 0.512-5.632V105.984c0-37.888-31.232-68.096-69.632-68.096H493.568c-38.4 0-69.632 30.72-69.632 68.096v236.032c-0.512 0.512-1.536 0.512-2.048 1.024L158.208 505.344c-13.312 8.192-20.992 22.528-20.992 38.4v381.952H72.704c-18.944 0-34.816 15.36-34.816 34.304s15.872 34.304 34.816 34.304h954.368c18.944 0 34.816-15.36 34.816-34.304 0-19.456-15.36-34.816-34.304-34.816z m-134.144-819.2v819.2H493.568v-819.2h399.872zM206.336 556.032l217.6-133.12v502.272H206.336v-369.152zM645.632 336.896h95.232c18.944 0 34.816-15.36 34.816-34.304s-15.36-34.304-34.816-34.304h-95.232c-18.944 0-34.816 15.36-34.816 34.304s15.872 34.304 34.816 34.304zM645.632 547.84h95.232c18.944 0 34.816-15.36 34.816-34.304s-15.36-34.304-34.816-34.304h-95.232c-18.944 0-34.816 15.36-34.816 34.304s15.872 34.304 34.816 34.304zM645.632 759.296h95.232c18.944 0 34.816-15.36 34.816-34.304s-15.36-34.304-34.816-34.304h-95.232c-18.944 0-34.816 15.36-34.816 34.304s15.872 34.304 34.816 34.304zM359.424 690.688H270.848c-18.944 0-34.816 15.36-34.816 34.304s15.872 34.304 34.816 34.304h88.576c18.944 0 34.816-15.36 34.816-34.304s-15.872-34.304-34.816-34.304z"/>
</svg>
