<?xml version="1.0" standalone="no"?><!DOCTYPE svg PUBLIC "-//W3C//DTD SVG 1.1//EN" "http://www.w3.org/Graphics/SVG/1.1/DTD/svg11.dtd"><svg t="1700624161133" class="icon" viewBox="0 0 1084 1024" version="1.1" xmlns="http://www.w3.org/2000/svg" p-id="6895" xmlns:xlink="http://www.w3.org/1999/xlink" width="211.71875" height="200"><path d="M0 165.647059A135.529412 135.529412 0 0 1 135.529412 30.117647h610.063059a135.529412 135.529412 0 0 1 135.529411 135.529412v271.179294a271.119059 271.119059 0 0 0-79.811764 530.251294 135.047529 135.047529 0 0 1-55.717647 11.986824H135.589647A135.529412 135.529412 0 0 1 0 843.535059V165.647059z m154.202353 65.174588c0 18.130824 14.697412 32.888471 32.888471 32.888471h396.288a32.828235 32.828235 0 0 0 0-65.716706h-396.348236a32.828235 32.828235 0 0 0-32.828235 32.828235z m0 167.936c0 18.130824 14.697412 32.888471 32.888471 32.888471h396.288a32.828235 32.828235 0 1 0 0-65.716706h-396.348236a32.828235 32.828235 0 0 0-32.828235 32.828235z m32.888471 135.107765a32.828235 32.828235 0 1 0 0 65.65647H393.938824a32.828235 32.828235 0 0 0 0-65.65647H187.090824z" p-id="6896"></path><path d="M881.182118 910.757647a203.113412 203.113412 0 1 1 0-406.166588 203.113412 203.113412 0 0 1 0 406.166588z m0-383.397647a114.928941 114.928941 0 0 0-114.928942 114.928941 31.021176 31.021176 0 0 0 62.042353 0 52.886588 52.886588 0 1 1 75.294118 47.887059c-21.624471 10.24-53.428706 33.912471-53.428706 72.884706v5.782588a31.021176 31.021176 0 1 0 62.042353 0v-5.782588c0-0.783059 0.481882-3.132235 3.312941-6.445177a43.128471 43.128471 0 0 1 14.516706-10.24 114.928941 114.928941 0 0 0-48.850823-219.015529z m0 360.809412a37.345882 37.345882 0 1 0 0-74.63153 37.345882 37.345882 0 0 0 0 74.691765z" p-id="6897"></path></svg>