<?xml version="1.0" standalone="no"?><!DOCTYPE svg PUBLIC "-//W3C//DTD SVG 1.1//EN"
        "http://www.w3.org/Graphics/SVG/1.1/DTD/svg11.dtd">
<svg class="icon" width="200px" height="200.00px" viewBox="0 0 1024 1024" version="1.1"
     xmlns="http://www.w3.org/2000/svg">
    <path d="M105.6 102.4c-12.16 0-28.8 12.352-28.8 36.288v746.624c0 23.936 16.64 36.288 28.8 36.288h761.6c12.16 0 28.8-12.352 28.8-36.288V138.688c0-23.936-16.64-36.288-28.8-36.288H105.6zM0 138.688C0 80.128 43.52 25.6 105.6 25.6h761.6c62.08 0 105.6 54.528 105.6 113.088v746.624c0 58.56-43.52 113.088-105.6 113.088H105.6C43.52 998.4 0 943.872 0 885.312V138.688zM0 256a38.4 38.4 0 0 1 38.4-38.4h896a38.4 38.4 0 1 1 0 76.8H38.4A38.4 38.4 0 0 1 0 256zM336 512a38.4 38.4 0 0 1 38.4-38.4h336a38.4 38.4 0 1 1 0 76.8H374.4a38.4 38.4 0 0 1-38.4-38.4zM336 704a38.4 38.4 0 0 1 38.4-38.4h336a38.4 38.4 0 1 1 0 76.8H374.4a38.4 38.4 0 0 1-38.4-38.4zM168 512a38.4 38.4 0 0 1 38.4-38.4H262.4a38.4 38.4 0 0 1 0 76.8h-56a38.4 38.4 0 0 1-38.4-38.4zM168 704a38.4 38.4 0 0 1 38.4-38.4H262.4a38.4 38.4 0 1 1 0 76.8h-56a38.4 38.4 0 0 1-38.4-38.4z"/>
</svg>
