<?xml version="1.0" standalone="no"?><!DOCTYPE svg PUBLIC "-//W3C//DTD SVG 1.1//EN"
        "http://www.w3.org/Graphics/SVG/1.1/DTD/svg11.dtd">
<svg class="icon" width="200px" height="186.69px" viewBox="0 0 1097 1024" version="1.1"
     xmlns="http://www.w3.org/2000/svg">
    <path d="M737.572571 170.642286a54.857143 54.857143 0 0 1 54.857143-54.857143h146.285715a54.857143 54.857143 0 0 1 0 109.714286h-146.285715a54.857143 54.857143 0 0 1-54.857143-54.857143zM597.357714 18.285714a54.857143 54.857143 0 0 1 54.857143 54.857143v195.072a54.857143 54.857143 0 0 1-109.714286 0V73.142857a54.857143 54.857143 0 0 1 54.857143-54.857143z"
          fill="#909399"/>
    <path d="M6.070857 170.642286a54.857143 54.857143 0 0 1 54.857143-54.857143h536.429714a54.857143 54.857143 0 0 1 0 109.714286H60.928a54.857143 54.857143 0 0 1-54.857143-54.857143zM6.070857 512a54.857143 54.857143 0 0 1 54.857143-54.857143H256a54.857143 54.857143 0 1 1 0 109.714286H60.928A54.857143 54.857143 0 0 1 6.070857 512zM451.072 359.643429a54.857143 54.857143 0 0 1 54.857143 54.857142v194.998858a54.857143 54.857143 0 1 1-109.714286 0V414.500571a54.857143 54.857143 0 0 1 54.857143-54.857142z"
          fill="#909399"/>
    <path d="M396.214857 512a54.857143 54.857143 0 0 1 54.857143-54.857143H987.428571a54.857143 54.857143 0 0 1 0 109.714286H451.072a54.857143 54.857143 0 0 1-54.857143-54.857143zM737.572571 853.357714a54.857143 54.857143 0 0 1 54.857143-54.857143h146.285715a54.857143 54.857143 0 0 1 0 109.714286h-146.285715a54.857143 54.857143 0 0 1-54.857143-54.857143zM597.357714 700.928a54.857143 54.857143 0 0 1 54.857143 54.857143V950.857143a54.857143 54.857143 0 0 1-109.714286 0v-195.072a54.857143 54.857143 0 0 1 54.857143-54.857143z"
          fill="#909399"/>
    <path d="M6.070857 853.357714a54.857143 54.857143 0 0 1 54.857143-54.857143h536.429714a54.857143 54.857143 0 0 1 0 109.714286H60.928a54.857143 54.857143 0 0 1-54.857143-54.857143z"
          fill="#909399"/>
</svg>
