<?xml version="1.0" standalone="no"?><!DOCTYPE svg PUBLIC "-//W3C//DTD SVG 1.1//EN"
        "http://www.w3.org/Graphics/SVG/1.1/DTD/svg11.dtd">
<svg class="icon" width="200px" height="164.76px" viewBox="0 0 1243 1024" version="1.1"
     xmlns="http://www.w3.org/2000/svg">
    <path d="M242.322286 609.645714a97.499429 97.499429 0 1 0 0-195.072 97.499429 97.499429 0 0 0 0 195.072z"
          fill="#909399"/>
    <path d="M71.68 512.073143a170.642286 170.642286 0 1 1 341.284571 0 170.642286 170.642286 0 0 1-341.357714 0z m170.642286-24.356572a24.356571 24.356571 0 1 0 0 48.786286 24.356571 24.356571 0 0 0 0-48.786286zM120.393143 170.788571a121.929143 121.929143 0 1 1 243.858286 0 121.929143 121.929143 0 0 1-243.858286 0z m121.929143 24.356572a24.356571 24.356571 0 1 0 0-48.786286 24.356571 24.356571 0 0 0 0 48.786286zM120.393143 853.357714a121.929143 121.929143 0 1 1 243.858286 0 121.929143 121.929143 0 0 1-243.858286 0zM242.322286 877.714286a24.356571 24.356571 0 1 0 0-48.786286 24.356571 24.356571 0 0 0 0 48.786286zM461.750857 512a73.142857 73.142857 0 0 1 73.142857-73.142857h585.142857a73.142857 73.142857 0 1 1 0 146.285714h-585.142857a73.142857 73.142857 0 0 1-73.142857-73.142857zM461.750857 853.430857a73.142857 73.142857 0 0 1 73.142857-73.142857h585.142857a73.142857 73.142857 0 1 1 0 146.285714h-585.142857a73.142857 73.142857 0 0 1-73.142857-73.142857zM461.750857 170.569143a73.142857 73.142857 0 0 1 73.142857-73.142857h585.142857a73.142857 73.142857 0 1 1 0 146.285714h-585.142857a73.142857 73.142857 0 0 1-73.142857-73.142857z"
          fill="#ffffff"/>
</svg>
