<?xml version="1.0" standalone="no"?><!DOCTYPE svg PUBLIC "-//W3C//DTD SVG 1.1//EN"
        "http://www.w3.org/Graphics/SVG/1.1/DTD/svg11.dtd">
<svg class="icon" width="200px" height="200.00px" viewBox="0 0 1024 1024" version="1.1"
     xmlns="http://www.w3.org/2000/svg">
    <path d="M894.848 267.648L786.56 204.8l-108.224 62.848-1.152-0.64-1.216 0.64-2.176 1.28-106.048 61.888-110.72-63.168 1.344 0.96v376.96l0.128 0.128 1.024 0.64 1.152 0.64 1.024 0.64 106.048 61.888V584l0.512-0.384-0.512-0.256V457.728l1.152-0.768 107.712-62.656 0.512 0.448 0.576-0.448 1.664-0.896 107.2-62.592v125.44l-0.128 0.192h0.128v4.288L896 520.064V268.352l-1.152-0.64zM238.144 265.728l-1.152 0.64-2.24 1.28-106.624 60.48v122.88L128 451.008h0.128v305.664h0.128l1.024 0.64 1.216 0.64 1.024 0.64 106.624 60.544v-57.984l0.512-0.256-0.512-0.256V390.656l0.512-0.32 1.728-0.896 107.776-61.312 106.752-60.544 2.24-1.28L348.16 204.8l-110.016 60.928z"
          fill="#3473F4"/>
</svg>
