<?xml version="1.0" standalone="no"?><!DOCTYPE svg PUBLIC "-//W3C//DTD SVG 1.1//EN"
        "http://www.w3.org/Graphics/SVG/1.1/DTD/svg11.dtd">
<svg class="icon" width="200px" height="200.00px" viewBox="0 0 1024 1024" version="1.1"
     xmlns="http://www.w3.org/2000/svg">
    <path d="M527.104 697.6a170.688 170.688 0 1 1 0-341.376 170.688 170.688 0 0 1 0 341.376z m0-64a106.688 106.688 0 1 0 0-213.376 106.688 106.688 0 0 0 0 213.376z"
          fill="#303133"/>
    <path d="M660.16 94.656l17.152 125.824c13.952 6.848 27.392 14.656 40.192 23.232l117.568-48a42.688 42.688 0 0 1 53.12 18.112l90.752 157.184a42.688 42.688 0 0 1-10.816 55.04l-100.48 77.824a347.712 347.712 0 0 1 0 46.4l100.48 77.824a42.688 42.688 0 0 1 10.88 55.04l-90.816 157.184a42.688 42.688 0 0 1-53.12 18.176l-117.568-48.064c-12.8 8.64-26.24 16.384-40.192 23.232l-17.152 125.824a42.688 42.688 0 0 1-42.24 36.928H436.288a42.688 42.688 0 0 1-42.24-36.928l-17.216-125.824a340.672 340.672 0 0 1-40.192-23.232l-117.568 48.064a42.688 42.688 0 0 1-53.12-18.176L75.264 683.136a42.688 42.688 0 0 1 10.88-55.04l100.416-77.824a346.432 346.432 0 0 1 0-46.4L86.08 426.048a42.688 42.688 0 0 1-10.816-55.04l90.752-157.184a42.688 42.688 0 0 1 53.12-18.176l117.568 48.064c12.8-8.576 26.24-16.384 40.192-23.232l17.216-125.824a42.688 42.688 0 0 1 42.24-36.928h181.504c21.376 0 39.424 15.808 42.24 36.928z m-41.6 168.256l-19.328-141.184H455.04l-19.2 141.184-30.656 15.04a277.056 277.056 0 0 0-32.64 18.88l-28.352 19.072-131.968-53.952-72.128 124.928 112.64 87.296-2.24 33.984a282.24 282.24 0 0 0 0 37.824l2.24 33.984-112.64 87.296 72.128 124.992 131.968-54.016 28.352 19.136c10.432 6.976 21.312 13.312 32.64 18.88l30.592 14.976 19.264 141.184h144.256l19.264-141.184 30.592-14.976c11.328-5.568 22.272-11.904 32.64-18.88l28.352-19.136 132.032 54.016 72.128-124.992-112.704-87.296 2.304-33.984a283.968 283.968 0 0 0 0-37.76l-2.304-34.048 112.64-87.296-72.128-124.928-131.968 53.952-28.352-19.072a276.992 276.992 0 0 0-32.64-18.88l-30.592-15.04z"
          fill="#303133"/>
</svg>
