<?xml version="1.0" standalone="no"?><!DOCTYPE svg PUBLIC "-//W3C//DTD SVG 1.1//EN" "http://www.w3.org/Graphics/SVG/1.1/DTD/svg11.dtd"><svg t="1700631706231" class="icon" viewBox="0 0 1077 1024" version="1.1" xmlns="http://www.w3.org/2000/svg" p-id="7717" xmlns:xlink="http://www.w3.org/1999/xlink" width="210.3515625" height="200"><path d="M412.833684 72.165053a174.08 174.08 0 0 0 140.934737 71.68 174.08 174.08 0 0 0 140.880842-71.68c52.709053 17.785263 101.052632 45.271579 142.767158 80.357052a174.349474 174.349474 0 0 0 143.090526 226.41179 441.936842 441.936842 0 0 1 9.701053 173.918316 174.295579 174.295579 0 0 0-137.647158 261.389473 440.858947 440.858947 0 0 1-145.677474 89.357474 174.241684 174.241684 0 0 0-306.229894 0 440.805053 440.805053 0 0 1-145.677474-89.411369 174.295579 174.295579 0 0 0-137.647158-261.389473 444.901053 444.901053 0 0 1 9.701053-173.864421A174.349474 174.349474 0 0 0 270.066526 152.522105 440.104421 440.104421 0 0 1 412.833684 72.165053zM409.6 5.335579a504.778105 504.778105 0 0 0-193.697684 108.597895 43.493053 43.493053 0 0 0-10.725053 49.421473 109.621895 109.621895 0 0 1-100.998737 152.414316 35.031579 35.031579 0 0 0-33.414737 24.629895 508.335158 508.335158 0 0 0-14.22821 241.232842 43.546947 43.546947 0 0 0 44.301474 35.408842h3.395368a109.621895 109.621895 0 0 1 88.441263 174.349474 43.546947 43.546947 0 0 0 4.042105 56.589473 505.478737 505.478737 0 0 0 201.781895 123.311158 43.546947 43.546947 0 0 0 53.571369-25.49221 109.675789 109.675789 0 0 1 203.344842 0 43.546947 43.546947 0 0 0 53.625263 25.49221 505.478737 505.478737 0 0 0 201.728-123.311158 43.546947 43.546947 0 0 0 4.042105-56.589473 109.621895 109.621895 0 0 1 91.836632-174.295579 43.546947 43.546947 0 0 0 44.355368-35.462737 508.550737 508.550737 0 0 0-14.22821-241.232842 35.031579 35.031579 0 0 0-33.468632-24.68379 109.621895 109.621895 0 0 1-100.998737-152.360421 43.493053 43.493053 0 0 0-10.725052-49.421473A504.832 504.832 0 0 0 697.936842 5.389474a43.493053 43.493053 0 0 0-49.744842 19.779368 109.568 109.568 0 0 1-188.901053 0A43.493053 43.493053 0 0 0 409.6 5.389474z" p-id="7718"></path><path d="M355.813053 490.010947a197.955368 197.955368 0 1 1 395.910736 0 197.955368 197.955368 0 0 1-395.910736 0z m197.955368-133.281684a133.281684 133.281684 0 1 0 0 266.563369 133.281684 133.281684 0 0 0 0-266.563369z" p-id="7719"></path></svg>