<?xml version="1.0" standalone="no"?><!DOCTYPE svg PUBLIC "-//W3C//DTD SVG 1.1//EN"
        "http://www.w3.org/Graphics/SVG/1.1/DTD/svg11.dtd">
<svg class="icon" width="200px" height="200.00px" viewBox="0 0 1024 1024" version="1.1"
     xmlns="http://www.w3.org/2000/svg">
    <path d="M682.666667 512a170.666667 170.666667 0 1 0-341.333334 0 170.666667 170.666667 0 0 0 341.333334 0z m-85.333334 0a85.333333 85.333333 0 1 1-170.666666 0 85.333333 85.333333 0 0 1 170.666666 0zM554.666667 92.928a85.333333 85.333333 0 0 0-85.333334 0L170.666667 265.514667a85.333333 85.333333 0 0 0-42.666667 73.856v345.258666a85.333333 85.333333 0 0 0 42.666667 73.856l298.666666 172.586667a85.333333 85.333333 0 0 0 85.333334 0l298.666666-172.586667a85.333333 85.333333 0 0 0 42.666667-73.856V339.370667a85.333333 85.333333 0 0 0-42.666667-73.856l-298.666666-172.586667z m256 246.442667v345.258666l-298.666667 172.544-298.666667-172.544V339.370667l298.666667-172.544 298.666667 172.544z"/>
</svg>
