<?xml version="1.0" standalone="no"?><!DOCTYPE svg PUBLIC "-//W3C//DTD SVG 1.1//EN"
        "http://www.w3.org/Graphics/SVG/1.1/DTD/svg11.dtd">
<svg class="icon" width="200px" height="174.00px" viewBox="0 0 1177 1024" version="1.1"
     xmlns="http://www.w3.org/2000/svg">
    <path d="M15.689357 19.893146A52.098246 52.098246 0 0 0 0.419181 56.733193v781.425778a52.110222 52.110222 0 0 0 52.098246 52.098245h369.119064l114.987415 114.981427a52.116211 52.116211 0 0 0 56.811041 11.311907 52.092257 52.092257 0 0 0 16.904983-11.311907l114.981427-114.927532h369.172959a52.098246 52.098246 0 0 0 52.098245-52.098246V56.733193a52.086269 52.086269 0 0 0-52.098245-52.098246H52.523415A52.098246 52.098246 0 0 0 15.689357 19.887158z m531.77338 479.6931a52.098246 52.098246 0 1 1 0-104.196492h52.098245a52.098246 52.098246 0 0 1 0 104.196492h-52.098245z m212.309333-32.157193a52.122199 52.122199 0 0 1 28.192936-68.069053 52.116211 52.116211 0 0 1 19.941052-3.970246h52.098246a52.110222 52.110222 0 0 1 52.098246 52.098246 52.110222 52.110222 0 0 1-52.098246 52.098246h-52.098246a52.116211 52.116211 0 0 1-48.133988-32.157193z m-520.93455 0a52.098246 52.098246 0 0 1-3.964257-19.941053h-0.059883a52.098246 52.098246 0 0 1 52.104234-52.098246h52.098246a52.098246 52.098246 0 0 1 0 104.196492h-52.044351a52.098246 52.098246 0 0 1-48.133989-32.157193z"
          fill="#909399"/>
</svg>
