<?xml version="1.0" standalone="no"?><!DOCTYPE svg PUBLIC "-//W3C//DTD SVG 1.1//EN"
        "http://www.w3.org/Graphics/SVG/1.1/DTD/svg11.dtd">
<svg class="icon" width="200px" height="200.00px" viewBox="0 0 1024 1024" version="1.1"
     xmlns="http://www.w3.org/2000/svg">
    <path d="M185.283765 179.260235a36.141176 36.141176 0 0 0 0 51.07953L460.920471 505.976471l-275.636706 275.636705a36.141176 36.141176 0 1 0 51.139764 51.07953l301.176471-301.176471a36.141176 36.141176 0 0 0 0-51.079529l-301.176471-301.176471a36.141176 36.141176 0 0 0-51.139764 0zM486.460235 179.260235a36.141176 36.141176 0 0 0 0 51.07953L762.096941 505.976471l-275.636706 275.636705a36.141176 36.141176 0 1 0 51.139765 51.07953l301.176471-301.176471a36.141176 36.141176 0 0 0 0-51.079529l-301.176471-301.176471a36.141176 36.141176 0 0 0-51.139765 0z"/>
</svg>
