<?xml version="1.0" standalone="no"?><!DOCTYPE svg PUBLIC "-//W3C//DTD SVG 1.1//EN" "http://www.w3.org/Graphics/SVG/1.1/DTD/svg11.dtd"><svg t="1700644583363" class="icon" viewBox="0 0 1024 1024" version="1.1" xmlns="http://www.w3.org/2000/svg" p-id="8620" xmlns:xlink="http://www.w3.org/1999/xlink" width="200" height="200"><path d="M128 110.208C128 70.72 160 38.72 199.424 38.72h625.152c39.424 0 71.424 32 71.424 71.488V913.92c0 39.424-32 71.424-71.424 71.424H199.424C160 985.344 128 953.344 128 913.92V110.208z m71.424-17.92a17.92 17.92 0 0 0-17.856 17.92V913.92c0 9.856 8 17.856 17.92 17.856h625.088a17.92 17.92 0 0 0 17.856-17.92V110.272a17.856 17.856 0 0 0-17.92-17.92H199.488z" p-id="8621"></path><path d="M328.96 646.016c0-14.784 11.968-26.816 26.752-26.816h312.576a26.816 26.816 0 1 1 0 53.568H355.712a26.816 26.816 0 0 1-26.752-26.752zM328.96 779.968c0-14.784 11.968-26.816 26.752-26.816H512a26.816 26.816 0 1 1 0 53.568H355.712a26.816 26.816 0 0 1-26.752-26.752zM664.896 247.552a26.816 26.816 0 0 1 0 37.888l-178.56 178.56a26.816 26.816 0 0 1-37.952 0L359.104 374.72a26.816 26.816 0 1 1 37.888-37.888l70.4 70.4 159.616-159.68a26.816 26.816 0 0 1 37.888 0z" p-id="8622"></path></svg>