<?xml version="1.0" standalone="no"?><!DOCTYPE svg PUBLIC "-//W3C//DTD SVG 1.1//EN"
        "http://www.w3.org/Graphics/SVG/1.1/DTD/svg11.dtd">
<svg class="icon" width="200px" height="150.04px" viewBox="0 0 1365 1024" version="1.1"
     xmlns="http://www.w3.org/2000/svg">
    <path d="M611.5328 247.466667a213.333333 213.333333 0 1 1-426.666667 0 213.333333 213.333333 0 0 1 426.666667 0zM967.133867 460.8a213.333333 213.333333 0 1 0 0-426.666667 213.333333 213.333333 0 0 0 0 426.666667zM879.752533 1001.2672c19.387733-33.450667 30.446933-72.362667 30.446934-113.800533v-104.311467c0-47.5136-14.813867-99.874133-52.155734-142.472533a614.1952 614.1952 0 0 0-64.580266-63.488A496.776533 496.776533 0 0 1 967.133867 546.133333c149.162667 0 283.0336 65.604267 374.237866 169.5744 16.247467 18.568533 23.9616 42.8032 23.9616 67.447467V887.466667c0 62.805333-50.926933 113.800533-113.800533 113.800533h-371.780267zM794.146133 910.404267A113.800533 113.800533 0 0 1 682.666667 1001.198933H113.800533C50.9952 1001.2672 0 950.408533 0 887.466667v-104.311467c0-24.576 7.714133-48.878933 23.893333-67.447467A496.571733 496.571733 0 0 1 398.267733 546.133333C504.0128 546.133333 602.112 579.106133 682.666667 635.357867a500.394667 500.394667 0 0 1 89.838933 80.349866c16.247467 18.568533 23.893333 42.8032 23.893333 67.447467V887.466667c0 7.850667-0.750933 15.496533-2.2528 22.9376z"
          fill="#DCDFE6"/>
</svg>
