<?xml version="1.0" standalone="no"?><!DOCTYPE svg PUBLIC "-//W3C//DTD SVG 1.1//EN"
        "http://www.w3.org/Graphics/SVG/1.1/DTD/svg11.dtd">
<svg t="1689919016913" class="icon" viewBox="0 0 1024 1024" version="1.1" xmlns="http://www.w3.org/2000/svg" p-id="4288"
     width="200" height="200">
    <path d="M97.400471 831.909647a36.141176 36.141176 0 0 1 36.141176 36.141177v65.174588a36.141176 36.141176 0 1 1-72.282353 0V867.990588a36.141176 36.141176 0 0 1 36.141177-36.141176zM379.482353 654.938353a36.141176 36.141176 0 0 1 36.141176 36.141176v242.145883a36.141176 36.141176 0 0 1-72.282353 0v-242.145883a36.141176 36.141176 0 0 1 36.141177-36.141176zM661.504 436.284235a36.141176 36.141176 0 0 1 36.141176 36.141177v460.8a36.141176 36.141176 0 1 1-72.282352 0v-460.8a36.141176 36.141176 0 0 1 36.141176-36.141177zM943.525647 212.871529a36.141176 36.141176 0 0 0-36.141176 36.141177v684.212706a36.141176 36.141176 0 1 0 72.282353 0V248.952471a36.141176 36.141176 0 0 0-36.141177-36.141177zM972.559059 19.275294a36.803765 36.803765 0 0 1-6.806588 50.597647L72.463059 764.626824a34.514824 34.514824 0 0 1-49.272471-6.987295 36.803765 36.803765 0 0 1 6.806588-50.597647L923.286588 12.167529a34.514824 34.514824 0 0 1 49.272471 6.987295z"
          p-id="4289"></path>
    <path d="M561.995294 41.080471c0-19.998118 15.661176-36.141176 35.117177-36.141177h347.437176c19.395765 0 35.117176 16.143059 35.117177 36.141177 0 19.877647-15.721412 36.141176-35.117177 36.141176H597.112471a35.659294 35.659294 0 0 1-35.117177-36.141176z"
          p-id="4290"></path>
</svg>
