<?xml version="1.0" standalone="no"?><!DOCTYPE svg PUBLIC "-//W3C//DTD SVG 1.1//EN"
        "http://www.w3.org/Graphics/SVG/1.1/DTD/svg11.dtd">
<svg class="icon" width="200px" height="200.00px" viewBox="0 0 1024 1024" version="1.1"
     xmlns="http://www.w3.org/2000/svg">
    <path d="M141.44 103.936l-27.904 807.04a40.32 40.32 0 0 1-0.256 3.648 17.28 17.28 0 0 0 17.088 19.392h763.264a17.28 17.28 0 0 0 17.088-19.392 38.144 38.144 0 0 1-0.256-3.584l-27.904-807.04a17.28 17.28 0 0 0-16.896-13.888H158.336a17.28 17.28 0 0 0-16.896 13.824zM60.736 95.168C66.88 45.888 108.736 9.024 158.336 9.024h707.328a98.368 98.368 0 0 1 97.92 89.792l27.904 807.808a98.368 98.368 0 0 1-97.92 108.544H130.432a98.368 98.368 0 0 1-97.856-108.544L60.416 98.816c0-1.28 0.128-2.432 0.32-3.648zM288 320.32v-0.128l-0.064-0.128-0.064-0.192 0.192 0.448z m448.064-0.384V320a105.92 105.92 0 0 1-7.872 11.392 173.44 173.44 0 0 1-34.112 32.064c-32.64 23.68-89.216 50.048-182.08 50.048-92.928 0-149.568-26.304-182.144-50.048a173.44 173.44 0 0 1-34.048-32.128 105.6 105.6 0 0 1-7.872-11.328l-0.064-0.192a40.512 40.512 0 0 0-72.32 36.8l36.224-18.176-36.224 18.176v0.064l0.064 0.128 0.128 0.256 0.384 0.64a90.112 90.112 0 0 0 4.16 7.232c2.688 4.352 6.592 10.048 11.904 16.768 10.624 13.376 26.752 30.528 49.92 47.36 46.912 34.112 120.32 65.6 229.888 65.6 109.44 0 182.912-31.488 229.76-65.6 23.232-16.832 39.424-33.984 49.984-47.36a187.008 187.008 0 0 0 16.064-24l0.384-0.64 0.128-0.256v-0.128s0.128-0.064-35.2-17.728l35.328 17.664a40.576 40.576 0 0 0-72.32-36.736z"/>
</svg>
