<?xml version="1.0" standalone="no"?><!DOCTYPE svg PUBLIC "-//W3C//DTD SVG 1.1//EN"
        "http://www.w3.org/Graphics/SVG/1.1/DTD/svg11.dtd">
<svg class="icon" width="200px" height="200.00px" viewBox="0 0 1024 1024" version="1.1"
     xmlns="http://www.w3.org/2000/svg">
    <path d="M372.809143 58.148571c0-23.552 17.846857-42.569143 39.789714-42.569142h198.802286c21.942857 0 39.789714 19.017143 39.789714 42.569142v170.422858h333.019429c21.942857 0 39.789714 19.090286 39.789714 42.642285V484.205714c0 23.552-17.773714 42.642286-39.789714 42.642286H39.789714c-21.942857 0-39.789714-19.090286-39.789714-42.642286V271.213714c0-23.552 17.773714-42.642286 39.789714-42.642285h333.019429V58.148571z m79.506286 42.642286v170.422857c0 23.478857-17.773714 42.569143-39.716572 42.569143H79.506286v127.853714h864.987428V313.782857H611.401143c-21.942857 0-39.716571-19.017143-39.716572-42.569143v-170.422857H452.315429zM74.605714 486.546286c0-23.552 17.773714-42.642286 39.716572-42.642286h795.355428c21.942857 0 39.789714 19.017143 39.789715 42.642286v479.305143c0 23.552-17.846857 42.569143-39.789715 42.569142H114.322286c-21.942857 0-39.789714-19.017143-39.789715-42.569142V486.546286z m79.506286 42.569143v394.166857h715.776V529.115429H154.112zM313.197714 761.197714c21.942857 0 39.716571 19.017143 39.716572 42.569143v159.378286c0 23.478857-17.773714 42.569143-39.716572 42.569143-21.942857 0-39.789714-19.017143-39.789714-42.569143v-159.378286c0-23.552 17.773714-42.569143 39.789714-42.569143zM512 760.758857c-21.942857 0-39.789714 19.017143-39.789714 42.569143v159.817143c0 23.552 17.846857 42.642286 39.789714 42.642286 21.942857 0 39.789714-19.090286 39.789714-42.642286v-159.744c0-23.552-17.846857-42.642286-39.789714-42.642286zM710.802286 761.197714c21.942857 0 39.789714 19.017143 39.789714 42.569143v159.378286c0 23.478857-17.773714 42.569143-39.789714 42.569143-21.942857 0-39.716571-19.017143-39.716572-42.569143v-159.378286c0-23.552 17.773714-42.569143 39.716572-42.569143zM174.006857 965.851429c0-23.552 17.773714-42.569143 39.716572-42.569143h596.553142c21.942857 0 39.716571 19.017143 39.716572 42.569143 0 23.552-17.773714 42.569143-39.716572 42.569142H213.723429c-21.942857 0-39.716571-19.017143-39.716572-42.569142z"/>
</svg>
