<?xml version="1.0" standalone="no"?><!DOCTYPE svg PUBLIC "-//W3C//DTD SVG 1.1//EN"
        "http://www.w3.org/Graphics/SVG/1.1/DTD/svg11.dtd">
<svg class="icon" width="200px" height="200.00px" viewBox="0 0 1024 1024" version="1.1"
     xmlns="http://www.w3.org/2000/svg">
    <path d="M9.216 931.328v86.528h1003.008v-86.528zM45.568 903.168h261.12v-30.72c0-51.2-41.472-93.184-93.184-93.184H138.752c-51.2 0-93.184 41.472-93.184 93.184v30.72zM776.704 680.96v5.12c1.536 36.352 32.256 65.024 68.608 63.488s65.024-32.256 63.488-68.608c-1.536-34.304-29.184-62.464-63.488-63.488-36.864-1.024-67.584 27.136-68.608 63.488zM181.76 749.568c36.352-1.536 65.024-32.256 63.488-68.608-1.536-34.304-29.184-62.464-63.488-63.488-36.352-1.536-67.072 27.136-68.608 63.488v5.12c1.536 36.352 32.256 65.024 68.608 63.488zM511.488 545.28c-45.568 0-82.432 36.864-82.432 82.432 0 45.568 36.864 82.432 82.432 82.432 45.568 0 82.432-36.864 82.432-82.432 0-45.568-36.864-82.432-82.432-82.432zM805.376 779.264c-51.2 0-93.184 41.472-93.184 93.184v30.72h261.12v-30.72c0-51.2-41.472-93.184-93.184-93.184h-74.752zM219.136 598.528l2.56 1.024c14.848 7.68 27.648 19.456 36.352 33.792 26.112 43.52 12.288 99.84-30.72 125.952 43.52 0.512 81.92 28.16 95.744 69.12 10.24-60.416 62.464-104.96 123.904-104.96h3.072c-4.608-3.072-9.216-6.656-13.312-10.24-47.616-41.472-52.736-114.176-10.752-161.792 41.472-47.616 114.176-52.736 161.792-10.752V52.736c0-5.12-4.096-9.216-9.216-9.216H405.504C302.592 44.032 219.136 127.488 219.136 230.4v197.12-0.512 171.52z m297.472-172.544h-33.28c-7.68 0-13.312-6.144-13.312-13.312 0-7.168 6.144-13.312 13.312-13.312h33.28c7.68 0 13.312 6.144 13.312 13.312 0.512 7.168-5.632 13.312-13.312 13.312z m-46.592-290.816c0-7.68 6.144-13.312 13.312-13.312h33.28c7.68 0 13.312 6.144 13.312 13.312 0 7.68-6.144 13.312-13.312 13.312h-33.28c-7.168 0.512-13.312-5.632-13.312-13.312z m60.416 92.672c0 7.68-6.144 13.312-13.312 13.312h-33.28c-7.68 0-13.312-6.144-13.312-13.312s6.144-13.312 13.312-13.312h33.28c7.168 0 13.312 5.632 13.312 13.312z m-60.416 92.16c0-7.68 6.144-13.312 13.312-13.312h33.28c7.68 0 13.312 6.144 13.312 13.312s-6.144 13.312-13.312 13.312h-33.28c-7.168 0.512-13.312-5.632-13.312-13.312 0 0.512 0 0 0 0zM386.56 121.856H419.84c7.68 0 13.312 6.144 13.312 13.312S427.008 148.48 419.84 148.48h-33.28c-7.68 0-13.312-6.144-13.312-13.312s5.632-13.312 13.312-13.312z m0 92.672H419.84c7.68 0 13.312 6.144 13.312 13.312 0 7.68-6.144 13.312-13.312 13.312h-33.28c-7.68 0-13.312-6.144-13.312-13.312-0.512-7.68 5.632-13.312 13.312-13.312z m46.592 105.472c0 7.168-6.144 13.312-13.312 13.312h-33.28c-7.68 0-13.312-6.144-13.312-13.312 0-7.168 6.144-13.312 13.312-13.312H419.84c7.168 0 13.312 6.144 13.312 13.312zM386.56 399.36H419.84c7.68 0 13.312 6.144 13.312 13.312 0 7.68-6.144 13.312-13.312 13.312h-33.28c-7.68 0-13.312-6.144-13.312-13.312-0.512-7.68 5.632-13.312 13.312-13.312z m-97.28-184.832H322.56c7.68 0 13.312 6.144 13.312 13.312s-6.144 13.312-13.312 13.312h-33.28c-7.68 0-13.312-6.144-13.312-13.312s5.632-13.312 13.312-13.312z m0 92.16H322.56c7.68 0 13.312 6.144 13.312 13.312s-6.144 13.312-13.312 13.312h-33.28c-7.68 0-13.312-6.144-13.312-13.312-0.512-7.168 5.632-13.312 13.312-13.312z m46.592 105.984c0 7.168-6.144 13.312-13.312 13.312h-33.28c-7.68 0-13.312-6.144-13.312-13.312 0-7.68 6.144-13.312 13.312-13.312H322.56c7.168 0 13.312 6.144 13.312 13.312z m-46.592 78.336H322.56c7.68 0 13.312 6.144 13.312 13.312 0 7.168-6.144 13.312-13.312 13.312h-33.28c-7.68 0-13.312-6.144-13.312-13.312-0.512-7.68 5.632-13.312 13.312-13.312zM573.44 723.968h0.512zM450.048 748.544c-56.32 0-102.4 46.08-102.4 102.4v52.224h326.144v-52.224c0-56.32-46.08-102.4-102.4-102.4H450.048zM615.936 578.048c7.168 14.848 11.264 31.744 11.264 49.152 0 34.304-19.968 73.728-44.032 94.72h3.072c55.808 5.632 100.864 47.104 111.104 101.888 15.36-38.912 53.248-65.024 95.232-65.024h2.56c-14.848-9.216-27.136-22.528-34.816-38.4-22.016-45.568-3.072-100.352 42.496-122.88V253.952c0-5.12-4.096-9.216-9.216-9.216h-167.936c-5.12 0-9.216 4.096-9.216 9.216v324.096z m116.224-62.464h-28.672c-7.68 0-13.312-6.144-13.312-13.312 0-7.168 6.144-13.312 13.312-13.312h28.672c7.68 0 13.312 6.144 13.312 13.312 0.512 7.168-5.632 13.312-13.312 13.312z m1.536-89.6h-49.152c-7.68 0-13.312-6.144-13.312-13.312 0-7.68 6.144-13.312 13.312-13.312h49.152c7.168 0 13.312 6.144 13.312 13.312 0 7.168-5.632 13.312-13.312 13.312z m-49.152-119.296h49.152c7.168 0 13.312 6.144 13.312 13.312 0 7.68-6.144 13.312-13.312 13.312h-49.152c-7.68 0-13.312-6.144-13.312-13.312 0-7.168 5.632-13.312 13.312-13.312z"/>
</svg>
