<?xml version="1.0" standalone="no"?><!DOCTYPE svg PUBLIC "-//W3C//DTD SVG 1.1//EN" "http://www.w3.org/Graphics/SVG/1.1/DTD/svg11.dtd"><svg t="1700627618319" class="icon" viewBox="0 0 1024 1024" version="1.1" xmlns="http://www.w3.org/2000/svg" p-id="7117" xmlns:xlink="http://www.w3.org/1999/xlink" width="200" height="200"><path d="M339.55168 726.016c16.32 0 29.568 13.184 29.568 29.504v200.896a29.568 29.568 0 0 1-59.072 0v-200.896c0-16.32 13.184-29.504 29.504-29.504zM142.68768 875.008c16.32 0 29.568 13.248 29.568 29.504v50.624a29.568 29.568 0 1 1-59.072 0v-50.56c0-16.32 13.184-29.568 29.504-29.568zM536.47968 555.008c16.32 0 29.568 13.248 29.568 29.504v371.008a29.568 29.568 0 0 1-59.072 0V584.512c0-16.256 13.184-29.504 29.504-29.504zM733.40768 356.992c16.32 0 29.568 13.248 29.568 29.568v569.216a29.568 29.568 0 0 1-59.072 0V386.56c0-16.32 13.248-29.568 29.504-29.568zM930.39968 160.256c16.32 0 29.504 13.248 29.504 29.504v765.888a29.568 29.568 0 1 1-59.072 0V189.76c0-16.256 13.248-29.504 29.568-29.504zM778.91168 46.656c11.52 11.52 11.52 30.208 0 41.792L114.33568 753.024a29.568 29.568 0 0 1-41.792-41.728L737.18368 46.656c11.52-11.52 30.208-11.52 41.728 0z" p-id="7118"></path><path d="M470.04768 67.52c0-16.32 13.184-29.504 29.504-29.504h258.496a29.568 29.568 0 0 1 0 59.072H499.55168a29.568 29.568 0 0 1-29.504-29.568z" p-id="7119"></path></svg>