<?xml version="1.0" standalone="no"?><!DOCTYPE svg PUBLIC "-//W3C//DTD SVG 1.1//EN"
        "http://www.w3.org/Graphics/SVG/1.1/DTD/svg11.dtd">
<svg class="icon" width="200px" height="200.00px" viewBox="0 0 1024 1024" version="1.1"
     xmlns="http://www.w3.org/2000/svg">
    <path d="M0 512a512 512 0 1 1 1024 0A512 512 0 0 1 0 512z m512-416.475429a416.475429 416.475429 0 1 0 0 832.950858A416.475429 416.475429 0 0 0 512 95.524571zM548.059429 256.438857a47.762286 47.762286 0 0 1 28.598857 61.147429l-68.022857 187.830857L612.205714 642.340571a47.762286 47.762286 0 1 1-76.068571 57.636572L416.768 542.427429a47.762286 47.762286 0 0 1-6.875429-45.129143l76.873143-212.260572a47.762286 47.762286 0 0 1 61.220572-28.598857z"/>
</svg>
