<?xml version="1.0" standalone="no"?><!DOCTYPE svg PUBLIC "-//W3C//DTD SVG 1.1//EN"
        "http://www.w3.org/Graphics/SVG/1.1/DTD/svg11.dtd">
<svg class="icon" width="200px" height="185.84px" viewBox="0 0 1102 1024" version="1.1"
     xmlns="http://www.w3.org/2000/svg">
    <path d="M0 222.601846c0-57.895385 49.388308-104.763077 110.276923-104.763077h110.276923V52.381538C220.553846 23.473231 245.208615 0 275.692308 0c30.483692 0 55.138462 23.473231 55.138461 52.381538v65.378462h441.107693v-65.378462c0-28.908308 24.654769-52.381538 55.138461-52.381538 30.483692 0 55.138462 23.473231 55.138462 52.381538v65.378462h110.276923c60.888615 0 110.276923 46.946462 110.276923 104.763077v104.763077H0v-104.763077zM110.276923 955.707077c-60.888615 0-110.276923-46.867692-110.276923-104.763077V432.128h1102.769231v418.973538c0 57.816615-49.388308 104.763077-110.276923 104.763077H110.276923z"/>
</svg>
