<?xml version="1.0" standalone="no"?><!DOCTYPE svg PUBLIC "-//W3C//DTD SVG 1.1//EN"
        "http://www.w3.org/Graphics/SVG/1.1/DTD/svg11.dtd">
<svg class="icon" width="200px" height="160.00px" viewBox="0 0 1280 1024" version="1.1"
     xmlns="http://www.w3.org/2000/svg">
    <path d="M1249.28 332.288L451.072 56.32c-15.36-6.144-33.28-4.608-47.616 5.632l-385.024 276.48C6.656 347.136 0 359.936 0 373.76v552.96c0 24.576 21.504 44.032 47.616 44.032H1232.384c13.312 0 25.088-5.12 33.792-12.8 3.072-3.072 6.144-6.656 8.192-10.24 1.536-2.56 2.56-5.12 3.584-7.68 1.536-4.096 2.048-8.704 2.048-13.312V373.76c-0.512-18.944-12.8-35.84-30.72-41.472z m-64 550.4h-172.032v-287.744c0-18.944-12.8-35.84-32.256-41.984l-266.752-82.944c-14.336-4.608-30.208-2.56-42.496 6.144-12.288 8.192-19.456 21.504-19.456 35.84v370.688H480.256v-721.92L1185.28 404.48v478.208z m-266.752 0h-172.032V573.44l172.032 53.248v256zM94.72 395.776l290.304-208.384v695.296H94.72V395.776z"/>
</svg>
