<?xml version="1.0" standalone="no"?><!DOCTYPE svg PUBLIC "-//W3C//DTD SVG 1.1//EN"
        "http://www.w3.org/Graphics/SVG/1.1/DTD/svg11.dtd">
<svg class="icon" width="200px" height="200.00px" viewBox="0 0 1024 1024" version="1.1"
     xmlns="http://www.w3.org/2000/svg">
    <path d="M404.772571 49.152a43.885714 43.885714 0 0 1 43.885715 43.885714v877.714286a43.885714 43.885714 0 0 1-87.771429 0v-877.714286a43.885714 43.885714 0 0 1 43.885714-43.885714z"
          fill="#303133"/>
    <path d="M435.785143 59.684571a43.885714 43.885714 0 0 1 0 62.098286l-292.571429 292.571429a43.885714 43.885714 0 0 1-62.098285-62.098286l292.571428-292.571429a43.885714 43.885714 0 0 1 62.098286 0zM648.557714 51.712a43.885714 43.885714 0 0 1 43.885715 43.885714v877.714286a43.885714 43.885714 0 1 1-87.771429 0v-877.714286a43.885714 43.885714 0 0 1 43.885714-43.885714z"
          fill="#303133"/>
    <path d="M972.141714 649.728a43.885714 43.885714 0 0 1 0 62.025143l-292.571428 292.571428a43.885714 43.885714 0 0 1-62.025143-62.025142l292.571428-292.571429a43.885714 43.885714 0 0 1 62.025143 0z"
          fill="#303133"/>
</svg>
