<?xml version="1.0" standalone="no"?><!DOCTYPE svg PUBLIC "-//W3C//DTD SVG 1.1//EN"
        "http://www.w3.org/Graphics/SVG/1.1/DTD/svg11.dtd">
<svg t="1689919009701" class="icon" viewBox="0 0 1024 1024" version="1.1" xmlns="http://www.w3.org/2000/svg" p-id="4142"
     width="200" height="200">
    <path d="M382.855529 76.137412H99.207529v283.708235h283.708236v-283.708235zM99.207529 3.855059h283.708236a72.282353 72.282353 0 0 1 72.282353 72.282353v283.708235a72.282353 72.282353 0 0 1-72.282353 72.282353h-283.708236a72.282353 72.282353 0 0 1-72.282353-72.282353v-283.708235a72.282353 72.282353 0 0 1 72.282353-72.282353zM383.156706 611.508706v283.828706H99.267765v-283.828706h283.888941z m-283.888941-72.282353a72.282353 72.282353 0 0 0-72.282353 72.282353v283.828706a72.282353 72.282353 0 0 0 72.282353 72.282353h283.888941a72.282353 72.282353 0 0 0 72.282353-72.282353v-283.828706a72.282353 72.282353 0 0 0-72.282353-72.282353H99.267765zM918.407529 76.137412v283.708235h-283.949176v-283.708235h283.949176z m-283.949176-72.282353a72.282353 72.282353 0 0 0-72.282353 72.282353v283.708235a72.282353 72.282353 0 0 0 72.282353 72.282353h283.949176a72.282353 72.282353 0 0 0 72.282353-72.282353v-283.708235a72.282353 72.282353 0 0 0-72.282353-72.282353h-283.949176zM918.407529 611.508706v283.828706h-283.888941v-283.828706h283.888941z m-283.888941-72.282353a72.282353 72.282353 0 0 0-72.282353 72.282353v283.828706a72.282353 72.282353 0 0 0 72.282353 72.282353h283.888941a72.282353 72.282353 0 0 0 72.282353-72.282353v-283.828706a72.282353 72.282353 0 0 0-72.282353-72.282353h-283.888941z"
          p-id="4143"></path>
</svg>
