<?xml version="1.0" standalone="no"?><!DOCTYPE svg PUBLIC "-//W3C//DTD SVG 1.1//EN"
        "http://www.w3.org/Graphics/SVG/1.1/DTD/svg11.dtd">
<svg class="icon" width="200px" height="200.00px" viewBox="0 0 1024 1024" version="1.1"
     xmlns="http://www.w3.org/2000/svg">
    <path d="M1024 512c0 282.7776-229.2224 512-512 512S0 794.7776 0 512 229.2224 0 512 0s512 229.2224 512 512z"
          fill="#F2F6FC"/>
    <path d="M775.9872 461.0816C781.312 488.8576 757.888 512 729.6 512H563.2a51.2 51.2 0 0 1-51.2-51.2v-166.4c0-28.2624 23.1424-51.712 50.9184-46.3872a269.0816 269.0816 0 0 1 213.0688 213.0688z m-37.7088 7.2448a230.6816 230.6816 0 0 0-182.6048-182.6048c-0.6656-0.128-0.9472-0.0512-1.024 0a3.5328 3.5328 0 0 0-1.28 0.8192 10.9056 10.9056 0 0 0-2.9696 7.8592V460.8a12.8 12.8 0 0 0 12.8 12.8h166.4a10.9312 10.9312 0 0 0 7.8592-2.9696 3.4816 3.4816 0 0 0 0.8448-1.28c0-0.0768 0.1024-0.3328-0.0256-1.024z"
          fill="#409EFF"/>
    <path d="M451.2512 276.4544c11.5968-2.9952 22.3488 6.1952 22.3488 18.176a20.864 20.864 0 0 1-15.744 19.8144 204.8 204.8 0 1 0 251.6992 251.6992 20.864 20.864 0 0 1 19.7888-15.744c12.0064 0 21.1968 10.752 18.2016 22.3488C720.5632 677.6832 625.3312 755.2 512 755.2a243.2 243.2 0 0 1-243.2-243.2c0-113.3312 77.5168-208.5632 182.4512-235.5456z"
          fill="#409EFF"/>
</svg>
