<svg width="41" height="22" viewBox="0 0 41 22" fill="none" xmlns="http://www.w3.org/2000/svg">
<g id="Group 1969">
<g id="STM">
<path id="Vector" d="M22.6901 8.08594H23.7101L26.3701 14.1759H26.4001L29.0501 8.08594H30.0701V15.2259H29.2501V9.54594H29.2201L26.7501 15.2259H26.0101L23.5401 9.54594H23.5101V15.2259H22.6901V8.08594Z" fill="#409EFF"/>
<path id="Vector_2" d="M15.2487 8.08594H21.0987V8.79594H18.5787V15.2259H17.7687V8.79594H15.2487V8.08594Z" fill="#409EFF"/>
<path id="Vector_3" d="M11.1802 7.94531C11.9802 7.94531 12.6202 8.12531 13.0802 8.49531C13.5602 8.87531 13.8302 9.44531 13.9002 10.1953H13.0902C13.0002 9.67531 12.8002 9.29531 12.4902 9.04531C12.1702 8.78531 11.7202 8.66531 11.1402 8.66531C10.6102 8.66531 10.2002 8.74531 9.90025 8.92531C9.56025 9.12531 9.39025 9.42531 9.39025 9.83531C9.39025 10.1953 9.59025 10.4853 10.0002 10.7053C10.1802 10.8053 10.6202 10.9553 11.3102 11.1553C12.2502 11.4353 12.8702 11.6653 13.1702 11.8453C13.7602 12.2053 14.0602 12.7053 14.0602 13.3553C14.0602 13.9753 13.8102 14.4753 13.3102 14.8353C12.8102 15.1853 12.1402 15.3653 11.2902 15.3653C10.4502 15.3653 9.79025 15.1853 9.31025 14.8253C8.75025 14.3953 8.44025 13.7453 8.38025 12.8653H9.19025C9.26025 13.4853 9.48025 13.9453 9.84025 14.2353C10.1702 14.4953 10.6502 14.6353 11.2902 14.6353C11.8702 14.6353 12.3502 14.5253 12.7102 14.3053C13.0702 14.0853 13.2502 13.7853 13.2502 13.4053C13.2502 12.9553 13.0102 12.6053 12.5402 12.3553C12.3402 12.2353 11.8302 12.0653 11.0302 11.8353C10.1702 11.5753 9.62025 11.3753 9.39025 11.2553C8.84025 10.9353 8.57025 10.4753 8.57025 9.87531C8.57025 9.25531 8.83025 8.76531 9.36025 8.42531C9.83025 8.10531 10.4402 7.94531 11.1802 7.94531Z" fill="#409EFF"/>
</g>
<g id="Group 1964">
<path id="Union" fill-rule="evenodd" clip-rule="evenodd" d="M36.6121 10.2454L35.6597 9.29295C35.5816 9.21485 35.4549 9.21485 35.3768 9.29295L34.5863 10.0834C34.5082 10.1615 34.5082 10.2882 34.5863 10.3663L36.7775 12.5574C37.0739 12.8538 37.5544 12.8538 37.8508 12.5574L40.042 10.3663C40.1201 10.2882 40.1201 10.1615 40.042 10.0834L39.2515 9.29295C39.1734 9.21485 39.0468 9.21485 38.9687 9.29295L38.0221 10.2396V6.20312C38.0221 3.99399 36.2312 2.20313 34.0221 2.20313L22.9285 2.20312V3.61312L34.0221 3.61313C35.4525 3.61313 36.6121 4.77271 36.6121 6.20312V10.2454Z" fill="url(#paint0_linear_3464_32732)"/>
<path id="Union_2" fill-rule="evenodd" clip-rule="evenodd" d="M4.46082 13.0415C4.53892 13.1196 4.66555 13.1196 4.74366 13.0415L5.53413 12.251C5.61223 12.1729 5.61223 12.0463 5.53413 11.9682L3.34296 9.77698C3.04657 9.48059 2.56603 9.48059 2.26965 9.77698L0.078476 11.9682C0.000371288 12.0463 0.000371299 12.1729 0.078476 12.251L0.868943 13.0415C0.947048 13.1196 1.07368 13.1196 1.15179 13.0415L1.98032 12.2129V15.8032C1.98032 18.0123 3.77117 19.8032 5.98031 19.8032H15.7354V18.3932H5.98031C4.54989 18.3932 3.39031 17.2336 3.39031 15.8032V11.971L4.46082 13.0415Z" fill="url(#paint1_linear_3464_32732)"/>
<path id="Union_3" fill-rule="evenodd" clip-rule="evenodd" d="M18.4221 1.24127C18.344 1.16316 18.344 1.03653 18.4221 0.958423L19.2126 0.167954C19.2907 0.0898489 19.4174 0.0898487 19.4955 0.167954L21.6866 2.35913C21.983 2.65552 21.983 3.13605 21.6866 3.43244L19.4955 5.62362C19.4174 5.70172 19.2907 5.70172 19.2126 5.62362L18.4221 4.83315C18.344 4.75504 18.344 4.62841 18.4221 4.5503L19.3593 3.61313H5.98048C4.55006 3.61313 3.39047 4.77271 3.39047 6.20313V8.41262H1.98047V6.20313C1.98047 3.99399 3.77134 2.20312 5.98048 2.20312H19.384L18.4221 1.24127Z" fill="url(#paint2_linear_3464_32732)"/>
<path id="Union_4" fill-rule="evenodd" clip-rule="evenodd" d="M38.0223 15.803V13.6406H36.6123V15.803C36.6123 17.2334 35.4527 18.393 34.0223 18.393H19.4009L20.3434 17.4505C20.4215 17.3724 20.4215 17.2458 20.3434 17.1677L19.5529 16.3772C19.4748 16.2991 19.3481 16.2991 19.27 16.3772L17.0789 18.5684C16.7825 18.8648 16.7825 19.3453 17.0789 19.6417L19.27 21.8329C19.3481 21.911 19.4748 21.911 19.5529 21.8329L20.3434 21.0424C20.4215 20.9643 20.4215 20.8377 20.3434 20.7596L19.3868 19.803H34.0223C36.2315 19.803 38.0223 18.0121 38.0223 15.803Z" fill="url(#paint3_linear_3464_32732)"/>
</g>
</g>
<defs>
<linearGradient id="paint0_linear_3464_32732" x1="39.6159" y1="12.7812" x2="21.2567" y2="2.20312" gradientUnits="userSpaceOnUse">
<stop offset="0.526947" stop-color="#409EFF"/>
<stop offset="1" stop-color="#409EFF" stop-opacity="0"/>
</linearGradient>
<linearGradient id="paint1_linear_3464_32732" x1="-2.31934" y1="19.8032" x2="17.7006" y2="19.8047" gradientUnits="userSpaceOnUse">
<stop offset="0.400014" stop-color="#21E5BF" stop-opacity="0.82"/>
<stop offset="0.938039" stop-color="#21E5BF" stop-opacity="0"/>
</linearGradient>
<linearGradient id="paint2_linear_3464_32732" x1="21.9089" y1="2.7577" x2="-0.293441" y2="2.7577" gradientUnits="userSpaceOnUse">
<stop offset="0.446845" stop-color="#2CCBFF"/>
<stop offset="1" stop-color="#2CCBFF" stop-opacity="0"/>
</linearGradient>
<linearGradient id="paint3_linear_3464_32732" x1="16.8566" y1="19.0273" x2="40.3895" y2="19.0273" gradientUnits="userSpaceOnUse">
<stop offset="0.459652" stop-color="#667FFF"/>
<stop offset="0.985722" stop-color="#5A75FF" stop-opacity="0"/>
</linearGradient>
</defs>
</svg>
