<svg width="41" height="22" viewBox="0 0 41 22" fill="none" xmlns="http://www.w3.org/2000/svg">
<g id="Group 1967">
<path id="STM" d="M11.691 7.94656C12.491 7.94656 13.131 8.12656 13.591 8.49656C14.071 8.87656 14.341 9.44656 14.411 10.1966H13.601C13.511 9.67656 13.311 9.29656 13.001 9.04656C12.681 8.78656 12.231 8.66656 11.651 8.66656C11.121 8.66656 10.711 8.74656 10.411 8.92656C10.071 9.12656 9.90104 9.42656 9.90104 9.83656C9.90104 10.1966 10.101 10.4866 10.511 10.7066C10.691 10.8066 11.131 10.9566 11.821 11.1566C12.761 11.4366 13.381 11.6666 13.681 11.8466C14.271 12.2066 14.571 12.7066 14.571 13.3566C14.571 13.9766 14.321 14.4766 13.821 14.8366C13.321 15.1866 12.651 15.3666 11.801 15.3666C10.961 15.3666 10.301 15.1866 9.82104 14.8266C9.26104 14.3966 8.95104 13.7466 8.89104 12.8666H9.70104C9.77104 13.4866 9.99104 13.9466 10.351 14.2366C10.681 14.4966 11.161 14.6366 11.801 14.6366C12.381 14.6366 12.861 14.5266 13.221 14.3066C13.581 14.0866 13.761 13.7866 13.761 13.4066C13.761 12.9566 13.521 12.6066 13.051 12.3566C12.851 12.2366 12.341 12.0666 11.541 11.8366C10.681 11.5766 10.131 11.3766 9.90104 11.2566C9.35104 10.9366 9.08104 10.4766 9.08104 9.87656C9.08104 9.25656 9.34104 8.76656 9.87105 8.42656C10.341 8.10656 10.951 7.94656 11.691 7.94656ZM15.7594 8.08656H21.6094V8.79656H19.0894V15.2266H18.2794V8.79656H15.7594V8.08656ZM23.2008 8.08656H24.2208L26.8808 14.1766H26.9108L29.5608 8.08656H30.5808V15.2266H29.7608V9.54656H29.7308L27.2608 15.2266H26.5208L24.0508 9.54656H24.0208V15.2266H23.2008V8.08656Z" fill="#D9D9D9"/>
<g id="Group 1964">
<path id="Union" fill-rule="evenodd" clip-rule="evenodd" d="M37.123 10.2454L36.1705 9.29295C36.0924 9.21485 35.9658 9.21485 35.8877 9.29295L35.0972 10.0834C35.0191 10.1615 35.0191 10.2882 35.0972 10.3663L37.2884 12.5574C37.5848 12.8538 38.0653 12.8538 38.3617 12.5574L40.5529 10.3663C40.631 10.2882 40.631 10.1615 40.5529 10.0834L39.7624 9.29295C39.6843 9.21485 39.5577 9.21485 39.4796 9.29295L38.533 10.2396V6.20312C38.533 3.99399 36.7421 2.20313 34.533 2.20313L23.4393 2.20312V3.61313L34.533 3.61313C35.9634 3.61313 37.123 4.77271 37.123 6.20312V10.2454Z" fill="url(#paint0_linear_3464_32703)"/>
<path id="Union_2" fill-rule="evenodd" clip-rule="evenodd" d="M4.97166 13.0415C5.04976 13.1196 5.17639 13.1196 5.2545 13.0415L6.04497 12.251C6.12307 12.1729 6.12307 12.0463 6.04497 11.9682L3.85379 9.77698C3.5574 9.48059 3.07687 9.48059 2.78048 9.77698L0.589305 11.9682C0.5112 12.0463 0.5112 12.1729 0.589305 12.251L1.37977 13.0415C1.45788 13.1196 1.58451 13.1196 1.66262 13.0415L2.49115 12.2129V15.8032C2.49115 18.0123 4.28201 19.8032 6.49115 19.8032H16.2462V18.3932H6.49115C5.06073 18.3932 3.90115 17.2336 3.90115 15.8032V11.971L4.97166 13.0415Z" fill="url(#paint1_linear_3464_32703)"/>
<path id="Union_3" fill-rule="evenodd" clip-rule="evenodd" d="M18.933 1.24127C18.8549 1.16316 18.8549 1.03653 18.933 0.958423L19.7234 0.167954C19.8015 0.0898491 19.9282 0.0898489 20.0063 0.167954L22.1975 2.35913C22.4938 2.65552 22.4938 3.13605 22.1975 3.43244L20.0063 5.62362C19.9282 5.70172 19.8015 5.70172 19.7234 5.62362L18.933 4.83315C18.8549 4.75504 18.8549 4.62841 18.933 4.5503L19.8701 3.61313H6.49133C5.06092 3.61313 3.90133 4.77271 3.90133 6.20313V8.41262H2.49133V6.20313C2.49133 3.99399 4.2822 2.20313 6.49133 2.20313H19.8948L18.933 1.24127Z" fill="url(#paint2_linear_3464_32703)"/>
<path id="Union_4" fill-rule="evenodd" clip-rule="evenodd" d="M38.5332 15.803V13.6406H37.1232V15.803C37.1232 17.2334 35.9636 18.393 34.5332 18.393H19.9118L20.8543 17.4505C20.9324 17.3724 20.9324 17.2458 20.8543 17.1677L20.0638 16.3772C19.9857 16.2991 19.8591 16.2991 19.781 16.3772L17.5898 18.5684C17.2934 18.8648 17.2934 19.3453 17.5898 19.6417L19.781 21.8329C19.8591 21.911 19.9857 21.911 20.0638 21.8329L20.8543 21.0424C20.9324 20.9643 20.9324 20.8377 20.8543 20.7596L19.8977 19.803H34.5332C36.7423 19.803 38.5332 18.0121 38.5332 15.803Z" fill="url(#paint3_linear_3464_32703)"/>
</g>
</g>
<defs>
<linearGradient id="paint0_linear_3464_32703" x1="40.1268" y1="12.7812" x2="21.7675" y2="2.20312" gradientUnits="userSpaceOnUse">
<stop offset="0.526947" stop-color="#409EFF"/>
<stop offset="1" stop-color="#409EFF" stop-opacity="0"/>
</linearGradient>
<linearGradient id="paint1_linear_3464_32703" x1="-1.80847" y1="19.8032" x2="18.2115" y2="19.8047" gradientUnits="userSpaceOnUse">
<stop offset="0.400014" stop-color="#21E5BF" stop-opacity="0.82"/>
<stop offset="0.938039" stop-color="#21E5BF" stop-opacity="0"/>
</linearGradient>
<linearGradient id="paint2_linear_3464_32703" x1="22.4198" y1="2.7577" x2="0.217423" y2="2.7577" gradientUnits="userSpaceOnUse">
<stop offset="0.446845" stop-color="#2CCBFF"/>
<stop offset="1" stop-color="#2CCBFF" stop-opacity="0"/>
</linearGradient>
<linearGradient id="paint3_linear_3464_32703" x1="17.3674" y1="19.0273" x2="40.9003" y2="19.0273" gradientUnits="userSpaceOnUse">
<stop offset="0.459652" stop-color="#667FFF"/>
<stop offset="0.985722" stop-color="#5A75FF" stop-opacity="0"/>
</linearGradient>
</defs>
</svg>
