<?xml version="1.0" standalone="no"?><!DOCTYPE svg PUBLIC "-//W3C//DTD SVG 1.1//EN" "http://www.w3.org/Graphics/SVG/1.1/DTD/svg11.dtd"><svg t="1700627463429" class="icon" viewBox="0 0 1024 1024" version="1.1" xmlns="http://www.w3.org/2000/svg" p-id="6875" data-spm-anchor-id="a313x.manage_type_myprojects.0.i0.5eda3a81azKAOF" xmlns:xlink="http://www.w3.org/1999/xlink" width="200" height="200"><path d="M20.48 511.8976a491.52 491.52 0 0 1 491.52-491.52 491.52 491.52 0 0 1 491.52 491.52 491.52 491.52 0 0 1-491.52 491.52 491.52 491.52 0 0 1-491.52-491.52z m491.52-430.08a430.08 430.08 0 1 0 0 860.16 430.08 430.08 0 0 0 0-860.16z" fill="#CECECE" p-id="6876"></path><path d="M579.84 121.7536a159.4368 159.4368 0 0 1 5.4272-80.384l58.2656 19.456c-3.072 9.216-7.5776 27.0336-3.328 49.5104 4.1984 21.9136 17.2544 51.4048 54.4768 83.456 14.4896 12.4416 28.2112 31.9488 29.2864 56.5248 0.9216 20.8384-1.536 39.2704-8.6016 54.9888-7.3728 16.384-18.8416 27.6992-32.256 35.1744-12.544 7.0656-26.112 10.3424-37.4272 12.3392a405.6064 405.6064 0 0 1-18.944 2.816c-4.7104 0.6144-9.0112 1.2288-13.312 1.8944-20.0704 3.2256-30.0544 7.5776-36.3008 15.9744-6.912 9.3184-14.848 31.232-9.0112 83.8144l0.0512 0.3584c3.3792 33.536 2.2528 61.2864-5.2736 82.7392-8.2944 23.552-24.6272 39.7824-47.6672 45.3632-19.968 4.8128-40.7552 0.512-57.856-4.8128a486.912 486.912 0 0 1-54.0672-21.8624l-6.5024-2.9696c-15.6672-7.168-30.3616-13.824-44.544-19.1488-16.2304-6.144-29.0304-9.3184-38.7072-9.5744-8.704-0.2048-12.544 1.8944-15.104 4.5056-3.2768 3.3792-8.5504 11.776-11.4688 31.5392 1.9456 18.688 1.8432 40.3456-2.1504 61.6448-4.2496 22.6816-13.312 47.104-31.2832 66.4576-18.7392 20.1216-44.9024 32.256-77.8752 32.8192-31.9488 0.512-69.1712-9.6768-112.64-31.3856l27.4944-54.9376c38.5024 19.2512 65.6896 25.2416 84.0704 24.8832 17.3056-0.256 27.2896-6.0416 33.9456-13.2096 7.424-7.9872 12.9536-20.224 15.872-35.9424 2.9696-15.5136 2.9184-32.3584 1.1264-46.848l-0.512-3.84 0.512-3.7888c3.584-28.928 12.288-53.3504 29.0304-70.4 17.6128-17.9712 39.8336-23.4496 60.672-22.8864 19.968 0.512 40.3456 6.5536 58.6752 13.4656a785.1008 785.1008 0 0 1 54.784 23.6544c17.7664 8.0896 33.3312 14.8992 46.9504 19.1488 14.2848 4.4544 21.8624 4.5568 25.1392 3.7888h0.0512c0.3584 0 1.9456 0.1024 4.096-6.0416 3.072-8.704 5.12-25.7536 2.0992-56.1152C500.736 406.4256 506.88 365.056 527.872 336.896c21.6064-29.0304 53.248-36.352 75.9296-39.9872 5.12-0.8192 10.24-1.536 14.848-2.0992l1.9456-0.256a348.16 348.16 0 0 0 14.336-2.1504c9.0624-1.6384 14.592-3.4304 18.2272-5.4272a13.312 13.312 0 0 0 6.2464-6.8608c1.8432-4.096 3.8912-12.1344 3.2256-27.0848-0.1024-2.56-1.8944-7.424-7.9872-12.6464-46.6944-40.192-67.7376-81.664-74.752-118.5792zM665.7536 788.48a93.696 93.696 0 0 1-37.632 32.512c-14.7456 7.3728-21.504 15.872-24.7808 23.7568-3.584 8.448-4.5056 19.2-2.2016 32.4608 4.7616 27.392 21.9648 57.1904 37.2736 76.288l-48.0256 38.4c-18.7904-23.552-42.5984-62.8224-49.7664-104.1408-3.6864-21.0944-3.328-44.544 6.144-66.9184 9.6768-22.9376 27.648-41.6768 53.9136-54.784a32.6656 32.6656 0 0 0 13.6192-11.1104 34.7136 34.7136 0 0 0 4.8128-14.7968c0.9216-6.9632 0.8704-15.0016 0.4608-25.088l-0.3584-6.4512c-0.3584-8.0896-0.8704-17.4592-0.6656-26.3168 0.4096-23.4496 5.3248-53.76 33.9456-75.4176 25.9584-19.6096 65.536-27.136 120.5248-26.0096 37.3248 0.768 72.192 13.2608 102.144 31.232l87.8592 52.6848-31.6416 52.6848-87.808-52.736c-22.9376-13.7216-47.4624-21.9648-71.7824-22.4768-51.9168-1.024-73.5744 7.0656-82.2784 13.6192-6.0416 4.608-9.216 11.008-9.5744 27.5968-0.1024 6.5024 0.2048 12.9536 0.6144 20.5824l0.3584 8.2944c0.512 10.5984 0.768 23.2448-0.9216 35.8912-1.6896 12.9536-5.632 26.9824-14.2336 40.2432z" fill="#CECECE" p-id="6877"></path></svg>