<?xml version="1.0" standalone="no"?><!DOCTYPE svg PUBLIC "-//W3C//DTD SVG 1.1//EN"
        "http://www.w3.org/Graphics/SVG/1.1/DTD/svg11.dtd">
<svg class="icon" width="200px" height="187.20px" viewBox="0 0 1094 1024" version="1.1"
     xmlns="http://www.w3.org/2000/svg">
    <path d="M189.980229 257.903268c25.680891 0 46.473658 20.792767 46.473658 46.473658v670.621453a46.400701 46.400701 0 1 1-92.874359 0V304.376926c0-25.680891 20.792767-46.473658 46.400701-46.473658zM525.290956 593.213994c25.680891 0 46.473658 20.792767 46.473658 46.473659v335.310726a46.400701 46.400701 0 1 1-92.87436 0V639.687653c0-25.680891 20.792767-46.473658 46.400702-46.473659zM525.290956 0c25.680891 0 46.473658 20.792767 46.473658 46.400701v335.310727a46.400701 46.400701 0 1 1-92.87436 0V46.400701C478.890254 20.792767 499.683021 0 525.290956 0zM860.601682 0c25.680891 0 46.400701 20.792767 46.400701 46.400701v670.621453a46.400701 46.400701 0 0 1-92.801402 0V46.400701c0-25.607934 20.792767-46.400701 46.400701-46.400701zM14.591415 175.388813a175.388813 175.388813 0 1 1 350.777627 0 175.388813 175.388813 0 0 1-350.777627 0z m175.388814-82.514454a82.514454 82.514454 0 1 0 0 165.028909 82.514454 82.514454 0 0 0 0-165.028909zM349.902142 510.69954a175.388813 175.388813 0 1 1 350.777627 0 175.388813 175.388813 0 0 1-350.777627 0zM525.290956 428.185086a82.514454 82.514454 0 1 0 0 165.028908 82.514454 82.514454 0 0 0 0-165.028908zM685.212869 846.010267a175.388813 175.388813 0 1 1 350.777627 0 175.388813 175.388813 0 0 1-350.777627 0z m175.388813-82.514455a82.514454 82.514454 0 1 0 0 165.101866 82.514454 82.514454 0 0 0 0-165.101866z"/>
</svg>
