<?xml version="1.0" standalone="no"?><!DOCTYPE svg PUBLIC "-//W3C//DTD SVG 1.1//EN"
        "http://www.w3.org/Graphics/SVG/1.1/DTD/svg11.dtd">
<svg class="icon" width="200px" height="200.00px" viewBox="0 0 1024 1024" version="1.1"
     xmlns="http://www.w3.org/2000/svg">
    <path d="M875.008 488.448c29.184-44.544 52.736-89.088 69.632-132.096 41.984-106.496 45.056-215.552-30.208-290.816C839.68-8.704 730.624-3.584 623.616 38.912c-41.472 16.384-83.968 38.912-126.464 66.048-49.152-32.256-97.28-57.856-143.872-74.752-104.448-38.4-208.896-36.864-277.504 43.52-69.632 80.896-59.392 194.56-13.312 303.616 14.848 35.328 33.792 71.68 56.832 107.52-27.136 43.008-48.64 85.504-65.024 126.464-41.984 108.544-46.592 221.184 28.672 296.448 75.264 75.264 185.344 66.048 292.864 20.992 38.4-16.384 78.336-37.888 118.272-63.488 50.176 32.256 99.84 57.856 146.944 75.264 106.496 38.4 214.016 38.4 283.136-41.984 70.144-81.408 55.808-196.608 7.68-305.664-15.36-34.304-34.816-69.12-56.832-104.448z m-226.304-378.368c98.816-38.912 172.544-33.28 216.576 10.752 43.008 43.008 50.176 112.128 12.8 206.336-12.288 30.72-28.672 62.976-48.64 96.256-42.496-56.832-92.16-113.152-146.432-166.4-39.424-38.4-79.36-73.728-119.808-104.448 29.696-17.408 58.368-31.744 85.504-42.496z m137.728 377.856c-34.816 47.616-76.8 96.256-124.928 143.872-54.784 54.784-111.616 103.424-167.936 142.848-46.592-33.28-94.208-73.216-139.776-118.272C296.96 601.088 246.784 542.72 206.336 485.376 242.688 433.664 287.232 380.928 337.92 330.24c51.712-51.712 105.472-97.28 158.208-135.168 45.568 33.28 92.16 72.704 138.24 117.76 58.368 56.832 110.08 116.224 152.064 175.104zM127.488 346.112c-41.984-99.84-38.912-174.592 1.024-221.184C168.96 77.824 236.544 67.584 330.24 102.4c31.744 11.776 65.536 28.16 100.352 49.152-48.128 36.352-95.744 77.824-141.312 123.392-46.592 46.08-88.576 94.72-125.44 143.872-13.824-24.576-26.112-49.152-36.352-72.704z m221.696 512c-100.352 41.984-173.568 37.888-217.088-5.632-43.008-43.008-49.664-114.176-11.776-211.968 11.264-28.672 26.112-58.88 43.52-89.088 40.448 55.296 88.576 109.568 141.312 161.28 39.424 38.912 80.384 74.24 121.856 105.472-26.624 15.872-52.736 29.184-77.824 39.936z m521.728-11.264c-39.936 46.592-110.08 56.832-207.36 21.504-32.768-11.776-67.584-28.672-103.424-49.664 51.2-38.4 101.888-82.944 150.016-131.072 43.52-43.52 83.456-89.088 118.272-134.144 14.848 24.576 27.136 48.64 37.888 72.192 45.568 100.864 44.032 175.104 4.608 221.184zM498.688 367.616c-65.024 0-118.272 52.736-118.272 118.272 0 65.024 52.736 118.272 118.272 118.272s118.272-52.736 118.272-118.272-52.736-118.272-118.272-118.272z m0 160.256c-23.04 1.024-42.496-17.408-43.52-40.448-1.024-23.04 17.408-42.496 40.448-43.52h3.072c23.04 0 41.984 18.944 41.984 41.984 0 23.04-18.432 41.984-41.984 41.984z"/>
</svg>
