<?xml version="1.0" standalone="no"?><!DOCTYPE svg PUBLIC "-//W3C//DTD SVG 1.1//EN"
        "http://www.w3.org/Graphics/SVG/1.1/DTD/svg11.dtd">
<svg class="icon" width="200px" height="200.00px" viewBox="0 0 1024 1024" version="1.1"
     xmlns="http://www.w3.org/2000/svg">
    <path d="M1024 512c0 282.770286-229.229714 512-512 512S0 794.770286 0 512 229.229714 0 512 0s512 229.229714 512 512z"
          fill="#F2F6FC"/>
    <path d="M344.81981 337.846857a167.18019 167.18019 0 1 0 334.384761 0 167.18019 167.18019 0 0 0-334.384761 0z m41.788952 208.993524A167.18019 167.18019 0 0 0 219.428571 714.020571C219.428571 737.109333 238.226286 755.809524 261.046857 755.809524h501.906286A41.691429 41.691429 0 0 0 804.571429 714.020571a167.18019 167.18019 0 0 0-167.180191-167.18019H386.608762z"
          fill="#D1E0F0"/>
</svg>
