<?xml version="1.0" standalone="no"?><!DOCTYPE svg PUBLIC "-//W3C//DTD SVG 1.1//EN"
        "http://www.w3.org/Graphics/SVG/1.1/DTD/svg11.dtd">
<svg class="icon" width="200px" height="200.00px" viewBox="0 0 1024 1024" version="1.1"
     xmlns="http://www.w3.org/2000/svg">
    <path d="M149.943481 149.943481A510.536778 510.536778 0 0 1 512.000366 0.000731a510.536778 510.536778 0 0 1 362.056884 149.94275A510.536778 510.536778 0 0 1 1024 512.000366a510.536778 510.536778 0 0 1-149.94275 362.056884A510.536778 510.536778 0 0 1 512.000366 1024a510.536778 510.536778 0 0 1-362.056885-149.94275A510.536778 510.536778 0 0 1 0.000731 512.000366a510.536778 510.536778 0 0 1 149.94275-362.056885z m53.686819 53.686819A434.68769 434.68769 0 0 0 75.84982 512.000366c0 120.4662 48.786251 229.448979 127.78048 308.370065A434.68769 434.68769 0 0 0 512.000366 948.150911a434.614547 434.614547 0 0 0 308.370065-127.78048A434.614547 434.614547 0 0 0 948.150911 512.000366a434.68769 434.68769 0 0 0-127.78048-308.370066A434.68769 434.68769 0 0 0 512.000366 75.84982a434.68769 434.68769 0 0 0-308.370066 127.78048zM512.000366 820.224146a59.245672 59.245672 0 1 0 0-118.491344 59.245672 59.245672 0 0 0 0 118.491344zM512.000366 189.733167c20.918842 0 37.887973 16.969131 37.887973 37.887973v379.245444a37.961116 37.961116 0 0 1-75.849089 0V227.62114c0-20.918842 17.042274-37.887973 37.961116-37.887973z"/>
</svg>
