<?xml version="1.0" standalone="no"?><!DOCTYPE svg PUBLIC "-//W3C//DTD SVG 1.1//EN"
        "http://www.w3.org/Graphics/SVG/1.1/DTD/svg11.dtd">
<svg class="icon" width="200px" height="200.00px" viewBox="0 0 1024 1024" version="1.1"
     xmlns="http://www.w3.org/2000/svg">
    <path d="M12.601469 549.407347a56.236408 56.236408 0 0 1 56.236409-56.257306h55.233306a56.236408 56.236408 0 1 1 0 112.493714H68.858776a56.236408 56.236408 0 0 1-56.236409-56.257306z"
          fill="#198043"/>
    <path d="M713.101061 0.480653l187.120327 245.885388 1.901714-1.149388v714.041469a62.693878 62.693878 0 0 1-62.693878 62.693878H188.52049a62.693878 62.693878 0 0 1-62.693878-62.693878V63.174531a62.693878 62.693878 0 0 1 62.693878-62.693878h524.580571z"
          fill="#D8DFE3"/>
    <path d="M769.525551 171.843918a20.897959 20.897959 0 0 0-20.897959-20.897959H524.204408v173.035102h245.342041v-152.137143zM239.574204 171.843918a20.897959 20.897959 0 0 1 20.897959-20.897959h224.444082v173.035102h-245.342041v-152.137143zM239.574204 511.665633a20.897959 20.897959 0 0 0 20.897959 20.897959h224.444082v-173.035102h-245.342041v152.137143zM769.525551 511.665633a20.897959 20.897959 0 0 1-20.897959 20.897959H524.204408v-173.035102h245.342041v152.137143zM10.44898 668.316735a62.693878 62.693878 0 0 1 62.693877-62.693878h863.817143a62.693878 62.693878 0 0 1 62.693878 62.693878v290.941387a62.693878 62.693878 0 0 1-62.693878 62.693878H73.142857a62.693878 62.693878 0 0 1-62.693877-62.693878V668.316735z"
          fill="#1FB35B"/>
    <path d="M70.008163 605.204898C25.871673 604.034612 13.541878 571.809959 12.894041 555.843918l-2.424163 111.302531 55.379591 35.819102c26.477714-32.099265 48.295184-96.590367 4.158694-97.760653z"
          fill="#D9D9D9"/>
    <path d="M70.008163 605.204898C25.871673 604.034612 13.541878 571.809959 12.894041 555.843918l-2.424163 111.302531 55.379591 35.819102c26.477714-32.099265 48.295184-96.590367 4.158694-97.760653z"
          fill="#1FB35B"/>
    <path d="M713.978776 0c8.129306 4.242286 15.213714 10.24 20.730775 17.554286l81.961796 108.43951 66.580898 93.497469 18.870857 27.041959h-125.450449a62.693878 62.693878 0 0 1-62.693877-62.693877V0z"
          fill="#AFBDC7"/>
    <path d="M225.969633 725.681633a12.538776 12.538776 0 0 1 10.219102-19.811266h10.24a12.538776 12.538776 0 0 1 10.323592 5.412572l39.789714 57.636571a12.538776 12.538776 0 0 0 20.647183 0l39.768817-57.636571a12.538776 12.538776 0 0 1 10.323592-5.43347h10.13551a12.538776 12.538776 0 0 1 10.177306 19.853062l-55.379592 77.155265a12.538776 12.538776 0 0 0 0 14.628571l60.645878 84.38596a12.538776 12.538776 0 0 1-10.198204 19.853061h-10.114613a12.538776 12.538776 0 0 1-10.323591-5.412572l-45.035103-65.201632a12.538776 12.538776 0 0 0-20.647183 0l-45.035102 65.201632a12.538776 12.538776 0 0 1-10.323592 5.43347h-10.24a12.538776 12.538776 0 0 1-10.219102-19.853062l60.227918-84.448653a12.538776 12.538776 0 0 0 0-14.544979l-54.961632-77.217959zM428.220082 718.409143a12.538776 12.538776 0 0 1 12.538775-12.538776h8.359184a12.538776 12.538776 0 0 1 12.538775 12.538776v162.669714a12.538776 12.538776 0 0 0 12.538776 12.538776h96.506775a12.538776 12.538776 0 0 1 12.538776 12.538775v3.030204a12.538776 12.538776 0 0 1-12.538776 12.538776h-129.94351a12.538776 12.538776 0 0 1-12.538775-12.538776v-190.798367zM686.226286 701.628082c25.70449 0 45.787429 5.140898 60.332408 16.028734 12.329796 8.923429 20.354612 21.671184 24.178939 38.431347 1.671837 7.188898-4.242286 13.583673-11.619266 13.583674h-9.613061c-5.872327 0-10.825143-4.158694-12.831347-9.675755-3.260082-9.090612-8.024816-16.028735-14.544979-20.563592-8.672653-6.35298-21.044245-9.383184-37.762613-9.383184-14.54498 0-25.683592 2.110694-33.415836 6.35298-9.592163 4.827429-14.210612 12.705959-14.210613 23.572898 0 9.675755 5.22449 17.240816 16.384 22.987755 4.952816 2.716735 17.637878 7.251592 38.368653 13.291102 29.696 9.069714 49.193796 16.028735 57.866449 21.169632 18.870857 11.180408 28.46302 26.603102 28.463021 46.560654 0 19.35151-7.732245 34.481633-23.196735 45.641142-15.485388 10.887837-37.135673 16.342204-64.992653 16.342204-26.916571 0-47.960816-5.433469-63.111837-15.736163-15.15102-10.511673-24.534204-26.038857-28.35853-46.539755-1.337469-7.126204 4.493061-13.312 11.765551-13.312h9.153306c6.227592 0 11.36849 4.597551 13.040326 10.616163 3.197388 11.556571 8.651755 20.312816 16.363102 25.955266 8.986122 6.666449 22.569796 9.989224 41.148082 9.989224 16.718367 0 30.009469-3.030204 39.915102-8.463673s14.837551-12.998531 14.837551-22.674286c0-12.099918-7.105306-21.462204-21.023347-28.421225-4.952816-2.424163-19.497796-7.251592-43.948408-14.524081-27.230041-8.463673-43.92751-14.210612-50.740245-17.825959-17.010939-9.968327-25.370122-24.492408-25.370122-43.237878 0-19.038041 8.045714-33.854694 24.450612-44.74253 15.46449-10.281796 34.962286-15.422694 58.47249-15.422694zM786.243918 725.681633a12.538776 12.538776 0 0 1 10.219102-19.811266h10.24a12.538776 12.538776 0 0 1 10.323592 5.412572l39.789715 57.636571a12.538776 12.538776 0 0 0 20.626285 0l39.789715-57.636571a12.538776 12.538776 0 0 1 10.323591-5.43347h10.135511a12.538776 12.538776 0 0 1 10.177306 19.853062l-55.379592 77.155265a12.538776 12.538776 0 0 0 0 14.628571l60.624979 84.38596a12.538776 12.538776 0 0 1-10.177306 19.853061h-10.13551a12.538776 12.538776 0 0 1-10.302694-5.412572l-45.056-65.201632a12.538776 12.538776 0 0 0-20.626285 0l-45.056 65.201632a12.538776 12.538776 0 0 1-10.302694 5.43347h-10.24a12.538776 12.538776 0 0 1-10.219102-19.853062l60.227918-84.448653a12.538776 12.538776 0 0 0 0-14.544979l-54.982531-77.217959z"
          fill="#D8DFE3"/>
    <path d="M783.673469 689.632653h208.979592v271.673469l-219.428571 31.346939L783.673469 689.632653z" fill="#1FB35B"/>
</svg>
