<?xml version="1.0" standalone="no"?><!DOCTYPE svg PUBLIC "-//W3C//DTD SVG 1.1//EN"
        "http://www.w3.org/Graphics/SVG/1.1/DTD/svg11.dtd">
<svg class="icon" width="200px" height="200.00px" viewBox="0 0 1024 1024" version="1.1"
     xmlns="http://www.w3.org/2000/svg">
    <path d="M96.64 77.312C96.64 34.56 131.2 0 173.888 0h676.224c42.688 0 77.312 34.56 77.312 77.312v869.44c0 42.624-34.56 77.248-77.312 77.248H173.888C131.2 1024 96.64 989.44 96.64 946.752V77.248zM173.888 57.984a19.328 19.328 0 0 0-19.328 19.328v869.44c0 10.624 8.704 19.264 19.328 19.264h676.224a19.328 19.328 0 0 0 19.328-19.264V77.248a19.328 19.328 0 0 0-19.328-19.328H173.888zM291.648 658.304c0-13.44 10.88-24.384 24.384-24.384h284.48a24.32 24.32 0 1 1 0 48.768H316.032a24.384 24.384 0 0 1-24.32-24.384zM291.648 804.544c0 13.44 10.88 24.384 24.384 24.384h142.272a24.384 24.384 0 0 0 0-48.704H316.032a24.32 24.32 0 0 0-24.32 24.32zM291.648 223.36c0-15.616 12.672-28.288 28.352-28.288H650.24c15.616 0 28.288 12.672 28.288 28.288v235.968a28.288 28.288 0 0 1-28.288 28.288H320a28.288 28.288 0 0 1-28.352-28.288V223.36z m56.64 28.288v179.328H622.08V251.648H348.288z"/>
</svg>
