<?xml version="1.0" standalone="no"?><!DOCTYPE svg PUBLIC "-//W3C//DTD SVG 1.1//EN"
        "http://www.w3.org/Graphics/SVG/1.1/DTD/svg11.dtd">
<svg class="icon" width="200px" height="200.00px" viewBox="0 0 1024 1024" version="1.1"
     xmlns="http://www.w3.org/2000/svg">
    <path d="M614.4 614.4a51.21024 51.21024 0 0 1-51.2 51.2H358.4a51.21024 51.21024 0 0 1-36.20352-87.40352A51.21024 51.21024 0 0 1 358.4 563.2h204.8a51.2512 51.2512 0 0 1 36.20352 14.99648A51.23584 51.23584 0 0 1 614.4 614.4z m102.4-204.8a51.2512 51.2512 0 0 1-14.99648 36.20352A51.23584 51.23584 0 0 1 665.6 460.8H358.4a51.2 51.2 0 0 1 0-102.4h307.2a51.21024 51.21024 0 0 1 51.2 51.2z"
          fill="#909399"/>
    <path d="M891.5968 225.9968A102.4 102.4 0 0 1 921.6 298.3936V921.6a102.4 102.4 0 0 1-102.4 102.4H204.8a102.39488 102.39488 0 0 1-102.4-102.4V102.4A102.4 102.4 0 0 1 204.8 0h418.4064a102.4 102.4 0 0 1 72.3968 30.0032l195.9936 195.9936zM819.2 298.3936L623.2064 102.4H204.8v819.2h614.4V298.3936z"
          fill="#909399"/>
</svg>
