<?xml version="1.0" standalone="no"?><!DOCTYPE svg PUBLIC "-//W3C//DTD SVG 1.1//EN"
        "http://www.w3.org/Graphics/SVG/1.1/DTD/svg11.dtd">
<svg class="icon" width="200px" height="200.00px" viewBox="0 0 1024 1024" version="1.1"
     xmlns="http://www.w3.org/2000/svg">
    <path d="M512 75.849143A436.150857 436.150857 0 0 0 75.849143 512v436.150857H512A436.150857 436.150857 0 1 0 512 75.849143zM37.961143 986.112H0V512a512 512 0 1 1 512 512H38.034286l-0.073143-37.888z m0 0V1024A38.034286 38.034286 0 0 1 0 986.038857h37.961143zM752.128 366.665143a37.888 37.888 0 0 0-53.613714 0L417.206857 647.972571 301.787429 532.626286a37.961143 37.961143 0 1 0-53.613715 53.613714l142.189715 142.189714c14.848 14.848 38.765714 14.848 53.613714 0l308.150857-308.150857a37.961143 37.961143 0 0 0 0-53.613714z"/>
</svg>
