<?xml version="1.0" standalone="no"?><!DOCTYPE svg PUBLIC "-//W3C//DTD SVG 1.1//EN"
        "http://www.w3.org/Graphics/SVG/1.1/DTD/svg11.dtd">
<svg class="icon" width="200px" height="188.24px" viewBox="0 0 1088 1024" version="1.1"
     xmlns="http://www.w3.org/2000/svg">
    <path d="M862.272 596.672a37.76 37.76 0 0 0 16.512 50.816 151.04 151.04 0 0 1 66.048 66.048c7.104 13.952 11.584 31.744 14.016 60.928 2.368 29.568 2.432 67.456 2.432 120.96v28.288a37.76 37.76 0 1 0 75.52 0v-29.952c0-51.456 0-92.416-2.688-125.44-2.752-33.856-8.576-62.72-22.016-89.088a226.624 226.624 0 0 0-99.008-99.072 37.76 37.76 0 0 0-50.816 16.512zM200.64 253.696a204.608 204.608 0 1 1 409.28 0 204.608 204.608 0 0 1-409.28 0z m204.672-124.16a124.16 124.16 0 1 0 0 248.32 124.16 124.16 0 0 0 0-248.32zM690.368 92.032a40.256 40.256 0 0 1 55.232-13.696 204.544 204.544 0 0 1 0 350.72 40.256 40.256 0 1 1-41.6-68.928A124.032 124.032 0 0 0 704 147.2a40.256 40.256 0 0 1-13.632-55.232zM351.872 565.696h106.88c51.072 0 91.904 0 124.8 2.688 33.92 2.752 62.976 8.512 89.664 22.144 42.88 21.888 77.824 56.768 99.712 99.712 13.568 26.688 19.392 55.744 22.144 89.6 2.688 32.96 2.688 73.792 2.688 124.864v29.952a40.256 40.256 0 0 1-40.256 40.32H53.12a40.256 40.256 0 0 1-40.256-40.32v-29.888c0-51.2 0-91.968 2.688-124.928 2.752-33.856 8.576-62.912 22.208-89.6a228.096 228.096 0 0 1 99.648-99.712c26.752-13.632 55.808-19.392 89.6-22.144 33.024-2.688 73.792-2.688 124.928-2.688z m-177.92 96.576a147.648 147.648 0 0 0-64.512 64.512c-6.912 13.44-11.328 30.72-13.696 59.584-2.176 27.072-2.432 61.12-2.432 108.032h624c-0.064-46.912-0.256-80.96-2.496-108.032-2.368-28.8-6.784-46.08-13.632-59.584a147.584 147.584 0 0 0-64.512-64.512c-13.44-6.848-30.784-11.328-59.648-13.696-29.248-2.368-66.816-2.368-120.064-2.368H353.6c-53.248 0-90.752 0-120.064 2.368-28.8 2.368-46.144 6.848-59.648 13.696z"/>
</svg>
